<svg xmlns="http://www.w3.org/2000/svg" xmlns:xlink="http://www.w3.org/1999/xlink" width="130" height="130" viewBox="0 0 130 130"><defs><clipPath id="a"><rect width="130" height="130" transform="translate(745 1507)" fill="#faf2e7"/></clipPath></defs><g transform="translate(-745 -1507)" clip-path="url(#a)"><g transform="translate(745.021 1507.011)"><path d="M86.638,26.212V16.245a2.7,2.7,0,0,0-1.851-2.567,63.938,63.938,0,0,0-12.312-2.44,8.122,8.122,0,1,0-14.993,0,63.937,63.937,0,0,0-12.312,2.44,2.7,2.7,0,0,0-1.851,2.567v9.968a54.149,54.149,0,1,0,43.319,0Zm27.074,49.6v0h-.471v-.005h.471Zm-.471-5.415a5.415,5.415,0,1,0,0,10.83c.055,0,.1-.03.156-.032a48.425,48.425,0,0,1-.79,4.862,15.425,15.425,0,0,1-3.3-1.705,17.6,17.6,0,0,0-20.026,0,12.23,12.23,0,0,1-14.246,0,16.56,16.56,0,0,0-10.01-3.125,16.566,16.566,0,0,0-10.015,3.125,11.4,11.4,0,0,1-7.128,2.29,11.433,11.433,0,0,1-7.144-2.29,16.62,16.62,0,0,0-10.031-3.125,16.615,16.615,0,0,0-10.026,3.125,15.481,15.481,0,0,1-3.331,1.709,48.474,48.474,0,0,1-.79-4.858c.042,0,.076.024.118.024a5.415,5.415,0,1,0,0-10.83c-.042,0-.076.023-.118.024a48.394,48.394,0,0,1,.789-4.854,15.424,15.424,0,0,1,3.3,1.705,16.555,16.555,0,0,0,10,3.125,16.578,16.578,0,0,0,10.021-3.128,11.367,11.367,0,0,1,7.118-2.287,11.4,11.4,0,0,1,7.128,2.29,16.56,16.56,0,0,0,10.01,3.125,16.566,16.566,0,0,0,10.015-3.125,12.265,12.265,0,0,1,14.272,0,17.653,17.653,0,0,0,20.057,0,15.482,15.482,0,0,1,3.331-1.709,48.437,48.437,0,0,1,.791,4.866c-.055,0-.1-.032-.156-.032Zm-97,5.415v0h.434v.005h-.434ZM62.271,8.122a2.707,2.707,0,1,1,2.707,2.707A2.707,2.707,0,0,1,62.271,8.122ZM48.734,18.288a65.58,65.58,0,0,1,32.489,0v5.869a54.078,54.078,0,0,0-32.489,0Zm16.245,8.786A48.789,48.789,0,0,1,111.161,60.36a20.148,20.148,0,0,0-4.773,2.329,12.282,12.282,0,0,1-14.283,0,17.636,17.636,0,0,0-20.047,0,12.23,12.23,0,0,1-14.246,0,16.578,16.578,0,0,0-10.021-3.128,16.56,16.56,0,0,0-10.01,3.125,11.4,11.4,0,0,1-7.128,2.29,11.346,11.346,0,0,1-7.107-2.287,20.055,20.055,0,0,0-4.753-2.328A48.789,48.789,0,0,1,64.979,27.074Zm0,97.468A48.789,48.789,0,0,1,18.8,91.256a20.15,20.15,0,0,0,4.773-2.329,11.428,11.428,0,0,1,7.139-2.29,11.433,11.433,0,0,1,7.144,2.29,16.62,16.62,0,0,0,10.031,3.125A16.565,16.565,0,0,0,57.9,88.928a12.23,12.23,0,0,1,14.246,0,17.6,17.6,0,0,0,20.031,0,12.213,12.213,0,0,1,14.235,0,20.055,20.055,0,0,0,4.753,2.328,48.789,48.789,0,0,1-46.184,33.289Z" fill="#faf2e7"/><path d="M82.682,70.393A5.415,5.415,0,1,0,88.1,75.808,5.415,5.415,0,0,0,82.682,70.393Zm0,5.415V75.8l2.707.005Z" fill="#f2e5b2"/><path d="M47.237,70.393a5.415,5.415,0,1,0,5.415,5.415A5.415,5.415,0,0,0,47.237,70.393Zm0,5.42-2.707-.005h2.707Z" fill="#f2e5b2"/></g></g></svg>