<?xml version="1.0" ?><svg viewBox="0 0 24 24" xmlns="http://www.w3.org/2000/svg"><title/><path d="M20.2041,1.584a5.82742,5.82742,0,0,0-7.98828,0L10.395,3.30371A2.227,2.227,0,0,0,10.397,6.5498a2.27177,2.27177,0,0,0,3.12012,0L15.33594,4.832a1.27466,1.27466,0,0,1,1.74951.00147,1.22865,1.22865,0,0,1,0,1.7915L2.68311,20.229a2.13488,2.13488,0,0,0-.66651,1.832,2.171,2.171,0,0,0,.66651,1.30566,2.38578,2.38578,0,0,0,3.23828-.00049L20.20947,9.86963A5.68174,5.68174,0,0,0,20.2041,1.584ZM12.83057,5.82324a1.275,1.275,0,0,1-1.749-.00146,1.22866,1.22866,0,0,1,0-1.79151L12.5874,2.608l1.44873,2.0766Zm1.95-1.81964L13.35242,1.95654a4.80364,4.80364,0,0,1,2.66711-.95312,4.92442,4.92442,0,0,1,1.39282.17212l-1.30676,2.319A2.25413,2.25413,0,0,0,14.78058,4.0036ZM17.14166,3.693l1.21912-2.16351a4.76961,4.76961,0,0,1,1.16217.78693,4.70408,4.70408,0,0,1,.8858,1.1762L18.17706,4.641a2.09931,2.09931,0,0,0-1.0354-.948ZM7.78546,16.78485,9.588,15.08215l2.17853,1.38764L9.96375,18.17273ZM9.214,18.881,7.44,20.55664,5.26147,19.169,7.03571,17.4931Zm1.12384-4.50708L12.14062,12.671,14.319,14.05872l-1.80261,1.70282Zm2.55261-2.41119,1.80261-1.70282,2.17853,1.38769-1.80279,1.70288Zm2.55243-2.41107,1.8028-1.703,2.17852,1.38764L17.6214,10.93927Zm-10.208,13.088a1.41947,1.41947,0,0,1-1.86523-.00049,1.14324,1.14324,0,0,1,0-1.68311l1.142-1.07879L6.69019,21.265ZM20.09235,8.47607l-2.123-1.35229A2.19944,2.19944,0,0,0,18.47314,5.729c0-.03723-.00927-.07244-.011-.10931L20.797,4.41815A4.66057,4.66057,0,0,1,20.99561,5.522,4.674,4.674,0,0,1,20.09235,8.47607Z" fill="red"/></svg>