<svg xmlns="http://www.w3.org/2000/svg" width="398" height="288.695" viewBox="0 0 398 288.695"><defs><style>.a{fill:#fff;}.b{fill:#ba3362;}.c{fill:#f43b7a;}.d{fill:#ff70a0;}</style></defs><g transform="translate(199 144.348)"><g transform="translate(-199 -144.348)"><path class="a" d="M268.973,0c.043.625.562.712,1,.852a29.78,29.78,0,0,1,7.092,3.708c4.686,3.033,9.71,5.014,15.435,4.736a29.392,29.392,0,0,0,13.725-4.607,25.452,25.452,0,0,1,5.961-2.808c7.017-2.009,12.709.149,17.491,6.651,2.358,3.207,4.479,6.586,7.736,9.044a23.678,23.678,0,0,0,12.94,5,49.935,49.935,0,0,0,9.926-.549c9.114-1.2,15.728,3.185,18.047,12.054.781,2.988,1.21,6.066,2.4,8.952,3.254,7.914,9.189,12.692,17.342,14.864,3.631.968,7.257,1.9,10.3,4.285,4.274,3.344,5.726,7.839,5.411,13.077a61.743,61.743,0,0,1-1.04,6.869c-.168.966-.506,1.4-1.543,1.543-2.294.307-4.576.74-6.841,1.224a1.565,1.565,0,0,1-1.966-1.019A125.572,125.572,0,0,0,376.2,49.569a131.08,131.08,0,0,0-26.281-18.945,127.642,127.642,0,0,0-45.379-14.777,130.854,130.854,0,0,0-25.817-.567,128.277,128.277,0,0,0-76.512,32.292,130.648,130.648,0,0,0-30.822,41.158,129.137,129.137,0,0,0-11.305,37.8c-.168,1.157-.55,1.618-1.723,1.768-2.3.293-4.574.75-6.849,1.191-.663.128-1.154.1-1.5-.556-1.287-2.477-2.922-4.764-3.886-7.422-2.592-7.152-.649-13.5,5.664-18.274,2.653-2,5.486-3.752,7.846-6.164,5.877-6.012,7.642-13.255,6.606-21.351a34.954,34.954,0,0,1-.4-8.7c.851-6.992,5.245-10.782,11.627-12.707,3.408-1.029,6.971-1.445,10.279-2.92,7.6-3.388,11.982-9.341,14.059-17.178.857-3.232,1.68-6.457,3.611-9.256,3.513-5.093,8.535-6.782,14.453-6.206,2.834.276,5.628,1.016,8.462,1.211,9.23.636,16.589-3,22.113-10.3,2.9-3.842,5.858-7.524,10.667-9.093.163-.053.239-.373.355-.569Z" transform="translate(-93.196)"/><path class="b" d="M1008.312,347.2l-44.427,7.857c-4.619.816-9.238,1.63-14.231,2.512,2.4-2.909,4.57-5.561,6.759-8.2q7.295-8.793,14.62-17.56a2.849,2.849,0,0,0,.728-2.58c-2.805-15.681-5.564-31.371-8.373-47.051-.207-1.156.122-1.566,1.247-1.76q14.939-2.578,29.859-5.259c1.722-.312,1.243.5.967,1.4-3.706,12.1-7.383,24.215-11.135,36.3a3.343,3.343,0,0,0,.622,3.405c7.455,9.8,14.847,19.656,22.269,29.486.308.407.491.968,1.094,1.09Z" transform="translate(-610.312 -176.789)"/><path class="b" d="M0,454.865c10.364-1.816,20.735-3.592,31.083-5.5,1.463-.269,1.811.125,2.038,1.426,2.63,15.111,5.333,30.21,7.927,45.327a5.46,5.46,0,0,0,2.913,4.407c8.5,4.789,16.875,9.789,25.3,14.715.66.387,1.312.789,2.431,1.463L13.157,527.033c1.052-3.5,2.02-6.773,3.018-10.035q4.2-13.725,8.426-27.443a2.353,2.353,0,0,0-.274-2.449Q12.5,471.54.77,455.9c-.207-.274-.359-.627-.77-.675Z" transform="translate(0 -288.744)"/><path class="c" d="M414.288,296.525c.216,1.129-.782.866-1.265.955-4.968.922-9.948,1.77-14.924,2.648q-28.973,5.115-57.947,10.234-27.832,4.906-55.667,9.791-28.8,5.069-57.6,10.146-28.886,5.1-57.77,10.206-30.9,5.456-61.8,10.9c-2.635.465-5.3.8-7.9,1.407-1.41.329-1.828,0-2.063-1.382-1.535-9.022-3.153-18.03-4.742-27.044-2.446-13.871-4.863-27.748-7.372-41.607-.277-1.531.036-2.026,1.57-2.294q41.364-7.227,82.71-14.549,32.928-5.8,65.859-11.575,30.816-5.433,61.625-10.9,30.906-5.452,61.817-10.874c13.756-2.421,27.515-4.829,41.26-7.314,1.34-.242,1.708.031,1.939,1.353q5.974,34.162,12.044,68.307C414.153,295.464,414.213,296,414.288,296.525ZM239.923,299c.334-14.328-9.268-24.945-24.626-24.057-8.195.473-16.141,2.857-24.235,4.18-.922.15-.875.618-.728,1.39q4.045,21.193,8,42.4c.189,1.016.574,1.259,1.545,1.07,6.826-1.329,13.69-2.479,20.483-3.958C232.1,317.474,239.021,309.921,239.923,299Zm76.9,2.514a2.9,2.9,0,0,0-.218-.586q-13.789-19.854-27.575-39.712a1.374,1.374,0,0,0-1.644-.624c-2.5.512-5.011,1.025-7.535,1.413a2.285,2.285,0,0,0-2.154,2.058c-1.45,6.432-2.991,12.844-4.508,19.261q-3.076,13.007-6.179,26.006c-.308,1.28-.1,1.728,1.319,1.415,2.552-.565,5.124-1.046,7.7-1.472A1.745,1.745,0,0,0,277.7,307.6c.447-2.575,1.09-5.115,1.552-7.687a1.681,1.681,0,0,1,1.6-1.54c6.019-1.1,12.04-2.209,18.04-3.413a1.745,1.745,0,0,1,2.143.969c1.386,2.218,2.876,4.372,4.264,6.589a1.561,1.561,0,0,0,1.885.852C310.375,302.708,313.585,302.131,316.826,301.517Zm12.466-2.041c.476,0,.954.022,1.429,0,6.595-.352,12.912-1.606,18-6.215a12.461,12.461,0,0,0,3.878-12.97c-1.125-4.629-4.369-7.076-8.747-8.2a43.317,43.317,0,0,0-7.6-.946c-3.374-.25-6.8-.082-10.1-1-3.024-.845-3.984-3.767-2.1-6.305a7.961,7.961,0,0,1,4.331-2.654,23.206,23.206,0,0,1,14.049.207c1.1.341,1.5.073,1.677-1a57.171,57.171,0,0,1,1.161-5.768c.356-1.286-.179-1.646-1.233-1.947a31.213,31.213,0,0,0-13.794-.689c-5.3.873-10.332,2.462-14.125,6.566-3.564,3.858-4.3,8.389-2.669,13.281,1.577,4.721,5.323,6.785,9.938,7.577a76.877,76.877,0,0,0,8.881.806c2.542.137,5.13.084,7.567,1.017,3.221,1.233,3.792,4.49,1.183,6.755a10.68,10.68,0,0,1-4.666,2.123,25.813,25.813,0,0,1-15.933-1.075c-1.006-.4-1.341-.186-1.553.783-.432,1.974-.851,3.956-1.421,5.892-.359,1.219.078,1.7,1.161,2.084A30.1,30.1,0,0,0,329.292,299.476Zm-163.082-8.818c-.342-1.751-.788-3.487-.99-5.252-.156-1.365-.743-1.437-1.892-1.2-4.131.841-8.282,1.584-12.425,2.369q-10.331,1.957-20.661,3.915c-.654.123-1.358.128-1.162,1.133.922,4.722,1.849,9.443,2.726,14.173.15.811.537.711,1.121.6,2.391-.468,4.785-.919,7.186-1.33.9-.154,1.178-.518.951-1.448-.381-1.556-.61-3.149-.943-4.718-.213-1,.01-1.47,1.153-1.661,3.867-.642,7.734-1.323,11.555-2.193,1.816-.414,1.644.186,1.327,1.529-2.821,11.964-5.572,23.945-8.385,35.912-.282,1.2-.376,1.713,1.189,1.337,2.653-.637,5.351-1.121,8.053-1.507a2.252,2.252,0,0,0,2.2-2.029c2.2-9.853,4.474-19.692,6.72-29.535C164.695,297.39,165.448,294.029,166.209,290.658ZM252.69,267.5q-4.464.835-8.929,1.669c-.726.135-.725.551-.6,1.176.459,2.209.847,4.432,1.267,6.648q3.4,17.937,6.784,35.876c.149.79.288,1.365,1.317,1.153,2.79-.574,5.587-1.125,8.392-1.619.856-.151,1-.441.825-1.287-.815-4.014-1.54-8.046-2.3-12.071q-2.873-15.225-5.751-30.45C253.592,268.027,253.616,267.324,252.69,267.5Z" transform="translate(-54.721 -144.727)"/><path class="a" d="M193.92,499.837c-.083-2.294.806-4.927,1.122-7.638a1.117,1.117,0,0,1,1.036-1.045q3.86-.693,7.717-1.4c1.045-.191,1.457.485,1.877,1.269a129.711,129.711,0,0,0,90.252,66.038,126.158,126.158,0,0,0,31.263,1.886,128.544,128.544,0,0,0,52.706-14.676,126.033,126.033,0,0,0,34.841-26.949,129.287,129.287,0,0,0,30.515-57.567,87.433,87.433,0,0,0,2.027-11.04,2.191,2.191,0,0,1,2.19-2.279c2.239-.257,4.452-.744,6.67-1.166.613-.117,1.179-.268,1.551.421,1.833,3.391,4.07,6.584,4.834,10.482,1.181,6.029-1.155,10.716-5.575,14.531-2.155,1.86-4.625,3.352-6.81,5.18-6.933,5.8-9.671,13.256-8.739,22.216.329,3.166,1.045,6.284.571,9.566-.873,6.049-4.179,9.923-9.726,12.123a64.787,64.787,0,0,1-7.754,2.054c-9.687,2.517-15.755,8.689-18.407,18.27-.905,3.271-1.677,6.573-3.6,9.456-3.529,5.291-8.647,6.988-14.7,6.44-3.307-.3-6.526-1.225-9.882-1.3-8.552-.2-15.137,3.545-20.306,10.052-2.3,2.9-4.431,5.93-7.66,7.883-6.03,3.646-11.792,2.267-17.294-1.217-3.334-2.111-6.661-4.169-10.514-5.188-6.914-1.827-13.33-.435-19.353,3.14a29.486,29.486,0,0,1-8.585,3.87c-7.059,1.559-12.125-1.659-16.1-7.043-2.3-3.114-4.437-6.337-7.476-8.814-5.987-4.881-12.894-6.019-20.317-4.944-3.314.48-6.607.835-9.91-.032-6.4-1.677-9.558-6.267-11.081-12.315-.783-3.111-1.319-6.283-2.636-9.248-3.521-7.924-9.861-12.278-18.037-14.308a30.482,30.482,0,0,1-6.721-2.349C196.269,511.28,193.938,506.461,193.92,499.837Z" transform="translate(-124.623 -286.094)"/><path class="a" d="M389.435,150.923c21.462.4,40.419,6.959,56.947,20.336A88.841,88.841,0,0,1,462.1,187.736c1.1,1.488,1.018,1.482-.678,2.031-2.12.686-3.353.034-4.741-1.728a84.866,84.866,0,0,0-43.191-29.218,81.859,81.859,0,0,0-29.829-3.157,83.775,83.775,0,0,0-46.776,17.951,85.308,85.308,0,0,0-28.657,40.9,4.014,4.014,0,0,1-4.611,3.011c-1.1-.107-.622-.8-.491-1.306a76.493,76.493,0,0,1,3.8-10.762,89.67,89.67,0,0,1,67.706-53.133A120.012,120.012,0,0,1,389.435,150.923Z" transform="translate(-194.674 -96.993)"/><path class="a" d="M414.617,536.487c-21.921-.315-41.212-7.333-57.964-21.188a87.381,87.381,0,0,1-14.415-15.28c-.9-1.206-.4-1.424.682-1.682a4.235,4.235,0,0,1,4.969,1.639c14.016,17.137,31.981,27.735,53.905,31.036a83.323,83.323,0,0,0,52.738-8.957c20.107-10.727,33.735-27.1,41.186-48.623a4.073,4.073,0,0,1,4.611-2.694c1.182.234.549,1,.393,1.506a91.367,91.367,0,0,1-4.148,11.206,90.332,90.332,0,0,1-21.856,29.914,88.775,88.775,0,0,1-44.862,21.689A104.288,104.288,0,0,1,414.617,536.487Z" transform="translate(-219.646 -302.479)"/><path class="a" d="M316.644,45.94c26.757.274,49.617,6.956,70.51,20.323a127,127,0,0,1,21.884,17.685,124.2,124.2,0,0,1,21.4,28.859c.14.263.291.522.4.8.214.511.765,1.091-.116,1.484-.728.324-1.223,0-1.608-.668-1.458-2.524-2.889-5.067-4.431-7.539A123.414,123.414,0,0,0,389.8,70.368a126.039,126.039,0,0,0-48.7-20.378,119.979,119.979,0,0,0-30.2-1.807,125.217,125.217,0,0,0-103.53,66.578,122.288,122.288,0,0,0-13.3,40.48c-.042.293-.124.581-.192.87a1.008,1.008,0,0,1-1.306.876c-.74-.165-.623-.806-.546-1.31.351-2.291.674-4.589,1.134-6.858a127.892,127.892,0,0,1,76.108-92.981,128.783,128.783,0,0,1,35.665-9.083A107.871,107.871,0,0,1,316.644,45.94Z" transform="translate(-123.368 -29.52)"/><path class="a" d="M341.856,561.4A128.22,128.22,0,0,1,230.7,494.561c-.267-.492-1.035-1.152-.072-1.622.927-.453,1.508.1,1.961.963A116.4,116.4,0,0,0,244.129,511.5a125.337,125.337,0,0,0,36.908,31.61,123.573,123.573,0,0,0,43.45,14.978,126.987,126.987,0,0,0,27.576.882,125.1,125.1,0,0,0,71.432-28.9,126.029,126.029,0,0,0,32.88-42.639,120.2,120.2,0,0,0,10.59-34.87c.124-.853.283-1.6,1.326-1.5,1.187.11.737.995.64,1.639a127.925,127.925,0,0,1-65.448,93.3,128.865,128.865,0,0,1-41.257,13.832A136.3,136.3,0,0,1,341.856,561.4Z" transform="translate(-147.917 -289.874)"/><path class="a" d="M401.448,167.927c20.111.368,37.735,6.472,53.1,18.921a82.116,82.116,0,0,1,12.893,13.031c.342.434,1.43.956.551,1.682-.759.626-1.581.222-2.145-.55a61.948,61.948,0,0,0-6.952-7.653,79.623,79.623,0,0,0-43.844-22.232c-21.113-3.405-40.748.735-58.6,12.466-15.307,10.058-25.927,23.943-32.151,41.186-.353.979-.295,2.963-1.971,2.28-1.358-.553-.152-1.989.181-2.938a83.757,83.757,0,0,1,64.635-54.79A105.816,105.816,0,0,1,401.448,167.927Z" transform="translate(-206.745 -107.921)"/><path class="a" d="M426.388,532.428c-20.907-.283-39.34-7.122-55.184-20.837a77.464,77.464,0,0,1-10.116-10.533c-.339-.429-1.3-.892-.425-1.546a1.368,1.368,0,0,1,2.013.451,70,70,0,0,0,5.744,6.344c12.746,12.744,28.031,20.677,45.839,23.195,24.238,3.427,46.032-2.647,64.931-18.323a79.736,79.736,0,0,0,24.581-35.513,10.331,10.331,0,0,1,.389-1A1.208,1.208,0,0,1,505.8,474c.863.359.257,1.051.1,1.528a78.967,78.967,0,0,1-7.678,16.466,83.146,83.146,0,0,1-34.8,31.855,81.55,81.55,0,0,1-31.342,8.3c-.947.055-1.888.224-2.835.272S427.34,532.428,426.388,532.428Z" transform="translate(-231.555 -304.552)"/><path class="b" d="M150.775,595.2c-.672.129-1.106-.358-1.6-.647q-11.7-6.819-23.384-13.658c-.35-.2-.686-.432-1.309-.827l16.83-2.986,5.434-.966c1.815-.322,2.058-.116,1.671,1.665a26.6,26.6,0,0,0-.485,10.953,20.929,20.929,0,0,0,2.814,6.493Z" transform="translate(-79.999 -370.169)"/><path class="b" d="M942.136,455.73c1.543-5.966-.128-11.163-3.068-16.129-1.768-2.985-1.777-3.023,1.544-3.622,6.834-1.233,13.675-2.42,20.984-3.709Z" transform="translate(-602.75 -277.806)"/><path class="a" d="M348.763,637.076c1.827-2.346,3.648-4.654,5.431-6.99.567-.743,1.011-1.581,2.021-.505.791.843,2.656,1.174,1.256,2.973-3.066,3.94-6.1,7.908-9.154,11.855-.356.46-.774,1.058-1.463.587-.9-.615-2.025-1.034-2.058-2.45-.082-3.5-.217-7-.357-10.506-.025-.627.329-1.539-.3-1.815-.766-.337-.958.694-1.327,1.139-1.478,1.784-2.937,3.593-4.272,5.486-1.27,1.8-1.981.094-2.856-.361-1.026-.534-1.243-1.2-.406-2.251,2.928-3.67,5.739-7.434,8.662-11.108.482-.605.739-2.006,1.866-1.436,1.081.547,2.3,1.15,2.3,2.846.007,3.741.2,7.482.329,11.222C348.449,636.152,348.284,636.588,348.763,637.076Z" transform="translate(-215.142 -399.456)"/><path class="a" d="M756.4,571.019c-2.146-1.545-4.287-3.1-6.447-4.633a2.341,2.341,0,0,1,.3-4.18c.718-.39,1.123.2,1.567.512,3.889,2.736,7.77,5.484,11.616,8.28.533.388,1.637.675,1.368,1.424a3.481,3.481,0,0,1-2.134,2.459,13.529,13.529,0,0,1-2.641.326c-3.428.23-6.857.436-10.573.668a12.416,12.416,0,0,0,3.02,2.494c1.364,1.053,2.777,2.047,4.221,2.987,1.023.667,1.114,1.214.324,2.225-1.58,2.024-1.5,2.062-3.6.543-3.564-2.578-7.16-5.114-10.707-7.716-.594-.436-1.9-.669-1.378-1.707s1.023-2.3,2.609-2.376c3.615-.182,7.226-.457,10.837-.7C755.3,571.587,755.877,571.782,756.4,571.019Z" transform="translate(-476.358 -361.229)"/><path class="a" d="M509.756,694.449a39.413,39.413,0,0,0-.573,8.134c-.028.825.122,1.911-.691,2.259-.967.414-2.1-.033-3.124-.26-.556-.123-.437-.781-.417-1.24q.347-7.653.717-15.305c.026-.566.1-1.146.829-1.132,1.2.023,2.467-.363,3.394.952,1.988,2.817,4.074,5.567,6.142,8.326.406.542.688,1.236,1.608,1.546.162-2.847.419-5.6.438-8.364.01-1.568.644-1.877,2.042-1.84,1.342.036,2.107.239,2,1.864-.311,4.919-.5,9.845-.744,14.768-.026.533,0,1.223-.709,1.237-1.131.024-2.382.5-3.28-.729-2-2.737-4.032-5.449-6.056-8.168C510.882,695.885,510.407,695.29,509.756,694.449Z" transform="translate(-324.5 -441.428)"/><path class="a" d="M551.445,77.739c.482-.517.278-1.139.3-1.7a57.811,57.811,0,0,1,.306-6.4,2.32,2.32,0,0,1,3.449-1.908c.568.254.581.71.561,1.181q-.341,7.827-.7,15.652c-.024.538-.244.946-.842.935-1.088-.02-2.253.363-3.1-.8-1.644-2.258-3.349-4.471-5.032-6.7-.817-1.082-1.641-2.158-2.538-3.336a2.45,2.45,0,0,0-.6,2.033c-.055,2.258-.094,4.516-.154,6.773s-1.746,1.27-2.849,1.379c-1.338.132-1.36-.782-1.314-1.749q.356-7.38.694-14.761c.028-.585-.049-1.325.8-1.326,1.133,0,2.355-.428,3.255.811,2.1,2.884,4.258,5.722,6.414,8.562C550.479,76.879,550.742,77.519,551.445,77.739Z" transform="translate(-346.35 -43.018)"/><path class="a" d="M580.239,694.05a8.421,8.421,0,0,1-5.532,7.989c-3.2,1.239-6.629,1.349-9.938,2.047-.81.171-1.072-.384-1.178-1q-1.33-7.731-2.619-15.469c-.09-.544-.065-1.159.661-1.243,3.812-.442,7.505-2,11.447-1.213A8.548,8.548,0,0,1,580.239,694.05Zm-10-5.677a28.778,28.778,0,0,1-2.984.432c-1.437.065-1.85.683-1.543,2.068.384,1.734.65,3.5.914,5.255.644,4.283.632,4.284,4.853,3.36,3.033-.665,4.885-3.042,4.561-5.852C575.632,690.131,573.714,688.414,570.237,688.373Z" transform="translate(-360.495 -440.189)"/><path class="a" d="M715.272,632.121c-4.817,0-9.27-4.3-9.209-8.893a10.64,10.64,0,0,1,10.37-10.412,9.391,9.391,0,0,1,9.185,9.071A10.682,10.682,0,0,1,715.272,632.121Zm.461-15.382a5.82,5.82,0,0,0-5.737,5.5,6.283,6.283,0,0,0,5.979,5.952,5.824,5.824,0,0,0,5.7-5.713A6.248,6.248,0,0,0,715.733,616.738Z" transform="translate(-453.763 -393.836)"/><path class="a" d="M460.677,687.407a9.035,9.035,0,0,1-9.326,9.384c-5.71-.017-10.294-4.308-10.335-9.674a9.375,9.375,0,0,1,9.464-9.194C456.3,677.954,460.677,682.023,460.677,687.407Zm-15.4-.033a5.7,5.7,0,0,0,5.7,5.836c2.947.014,5.646-2.823,5.69-5.98a5.905,5.905,0,0,0-5.678-5.728C448,681.4,445.361,684.107,445.274,687.375Z" transform="translate(-283.426 -435.68)"/><path class="a" d="M432.544,82.766c2.75.156,4.816.778,5.974,2.982,1.246,2.372,1.48,4.784-.3,7.02-.615.771-.455,1.238.237,1.751,1.146.849,2.288,1.7,3.41,2.581.321.252.982.478.309,1.058a4.537,4.537,0,0,1-4.733.158,9.88,9.88,0,0,1-1.839-1.4c-1.214-1.466-2.564-1.072-4.022-.556-.908.321-1.268.809-.924,1.741.123.334.22.679.332,1.017.78,2.363-.031,3.494-2.511,3.6-.786.035-.853-.514-1.011-1q-2.423-7.367-4.823-14.741c-.188-.577-.427-1.184.416-1.455C426.325,84.48,429.521,83.16,432.544,82.766Zm-.251,3.632c-1.776-.022-4.809,1.162-4.8,1.871.026,1.452,1.779,5.2,2.418,5.168,2.688-.123,5.47-2.159,5.458-4A3.143,3.143,0,0,0,432.293,86.4Z" transform="translate(-271.5 -53.191)"/><path class="d" d="M548.974,562.9c1.233-1.709,2.268-3.224,3.391-4.67a2.2,2.2,0,0,0,.3-2.45c-.691-1.693-1.245-3.443-1.963-5.469,1.936.591,3.689,1.042,5.375,1.672a2.385,2.385,0,0,0,2.746-.431c1.335-1.167,2.8-2.181,4.6-3.558,0,2.135.062,3.925-.023,5.708a2.393,2.393,0,0,0,1.284,2.472c1.525.907,2.947,1.987,4.759,3.232-2.029.672-3.771,1.3-5.543,1.82a2.306,2.306,0,0,0-1.8,1.9c-.406,1.761-1.008,3.477-1.625,5.54-1.329-1.79-2.517-3.318-3.616-4.908a1.813,1.813,0,0,0-1.758-.882C553.164,562.945,551.212,562.9,548.974,562.9Z" transform="translate(-352.808 -352.179)"/><path class="d" d="M505.37,207.725c-1.14,1.607-2.119,3.143-3.265,4.545a2.4,2.4,0,0,0-.356,2.754c.667,1.631,1.214,3.311,1.936,5.316-2.07-.642-3.868-1.13-5.611-1.77a2.193,2.193,0,0,0-2.43.428c-1.4,1.166-2.879,2.245-4.7,3.651,0-2.174-.089-3.982.032-5.777a2.379,2.379,0,0,0-1.319-2.436c-1.507-.936-2.945-1.98-4.712-3.183a48.293,48.293,0,0,1,5.042-1.687,2.94,2.94,0,0,0,2.449-2.586c.368-1.6.909-3.159,1.459-5.022,1.275,1.722,2.4,3.166,3.436,4.67a2.166,2.166,0,0,0,2.169,1.134C501.371,207.632,503.257,207.725,505.37,207.725Z" transform="translate(-311.658 -129.791)"/><path class="a" d="M333.676,153.233a9.018,9.018,0,0,1-8.545-6.129c-1.327-3.618-.157-7.583,3.1-10.441a10.348,10.348,0,0,1,6.089-2.684c.714-.057,1.975-.491,1.934.8-.033,1.012.315,2.568-1.5,2.758a7.256,7.256,0,0,0-4.047,1.7,5.57,5.57,0,0,0-1.807,5.947,5.765,5.765,0,0,0,4.876,4.121,6.274,6.274,0,0,0,5.979-3.082,1.168,1.168,0,0,0-.091-1.462c-.458-.545-.874-1.126-1.327-1.677-1.4-1.7-1.153-2.717.845-3.64a1.019,1.019,0,0,1,1.385.379c1.146,1.441,2.29,2.883,3.451,4.313.463.57.21,1.117.018,1.678A11.378,11.378,0,0,1,333.676,153.233Z" transform="translate(-208.606 -86.03)"/><path class="a" d="M497.485,87.547c-1.349.28-1.576-.54-1.85-1.142-.791-1.736-1.867-2.625-3.895-1.877a9.147,9.147,0,0,1-2.807.406c-2.064.073-3.467.737-3.676,3.093-.1,1.15-2.833,2.286-3.88,1.778-.512-.249-.382-.688-.269-1.079,1.6-5.592,3.176-11.191,4.842-16.764.5-1.672,2.21-.943,3.34-1.374.923-.353,1.235.356,1.622.973q4.352,6.941,8.729,13.868c1.009,1.6.935,1.779-.922,2.009C498.189,87.5,497.656,87.532,497.485,87.547Zm-9.5-5.658c1.394-.208,2.388-.394,3.39-.495.869-.088,1.015-.456.6-1.165-.814-1.383-1.613-2.775-2.445-4.148-.14-.231-.412-.532-.627-.535-.446-.008-.468.475-.555.8-.37,1.377-.671,2.774-1.071,4.141C486.962,81.548,487.035,82.168,487.982,81.889Z" transform="translate(-309.127 -45.304)"/><path class="a" d="M381.879,112.358c.045-1.342-.424-2.758,1.426-3.729a2.9,2.9,0,0,1,3.761.332c4.175,3.345,8.439,6.58,12.708,9.806.945.714.805.966-.123,1.567-1.641,1.062-3.079,1.756-4.574-.214-.759-1-1.754-.936-2.823-.267a25.674,25.674,0,0,1-3.922,2.112c-1.663.673-2,1.82-1.733,3.411a3.613,3.613,0,0,1-2.973,3.533c-.643.013-.609-.436-.638-.841C382.616,122.856,382.25,117.644,381.879,112.358Zm3.74.067c-.379,1.947.244,3.491.255,5.08.015,2.015.347,2.133,2.161,1.1.616-.35,1.239-.691,1.88-.992.95-.446.9-.954.159-1.559C388.663,114.91,387.255,113.759,385.619,112.425Z" transform="translate(-245.407 -69.468)"/><path class="a" d="M672.084,105.415c-.67,5.131-.091,10.444-.656,15.715-.092.857-.2,1.184-1.158.805-2.464-.979-2.689-1.193-2.494-3.788a2.034,2.034,0,0,0-1.376-2.353,44.572,44.572,0,0,1-4.645-2.279c-1.1-.625-1.989-.689-2.753.412-1.2,1.728-2.547,1.641-4.229.615-1.057-.645-1.307-.989-.272-1.851,4.019-3.347,8.083-6.648,11.961-10.153,1.592-1.439,2.867-1.036,4.48-.317C672.5,102.915,671.916,104.182,672.084,105.415Zm-3.669,1.567c-.037-.15-.015-.531-.19-.678-.355-.3-.641.075-.893.295-1.2,1.048-2.371,2.126-3.583,3.159-.765.652-.562,1.015.258,1.368.921.4,1.82.848,2.711,1.308,1.023.529,1.381.152,1.411-.9A20.738,20.738,0,0,1,668.415,106.981Z" transform="translate(-420.202 -65.275)"/><path class="a" d="M789.06,528.843c2.736,0,5.474.036,8.209-.019,1.2-.024,1.6.183,1.111,1.5-.661,1.783-1.615,2.844-3.656,2.453a1.968,1.968,0,0,0-2.425,1.51,45.588,45.588,0,0,1-2.078,4.734,1.822,1.822,0,0,0,.455,2.481c1.955,1.937,1.961,2.546.555,4.834-.413.673-.754.646-1.219.128-3.926-4.381-7.872-8.743-11.763-13.155-1.052-1.193.233-2.209.5-3.288a1.54,1.54,0,0,1,1.739-1.186C783.348,528.868,786.2,528.845,789.06,528.843Zm-6.492,3.633-.476.62a19.642,19.642,0,0,1,2.23,1.683c3.281,3.273,3.4,3.257,4.891-1.195.019-.056.046-.109.07-.164.252-.579.1-.936-.566-.94C786.666,532.47,784.616,532.477,782.567,532.477Z" transform="translate(-499.894 -339.857)"/><path class="a" d="M651.9,657.741a5.767,5.767,0,0,1,1.157.013c.844.19,2.117-.192,2.2,1.195a2.257,2.257,0,0,1-2.591,2.386c-3.3-.294-5.7,1.236-6.59,4.207a6.073,6.073,0,0,0,2.949,6.661c2.585,1.473,6.255.314,7.841-2.475a2.452,2.452,0,0,1,3.629-.319c.374.484.038.907-.134,1.326-1.41,3.444-6.206,6.313-9.821,5.888-4.692-.551-8.086-3.711-8.683-8.082a9.627,9.627,0,0,1,5.975-9.974A8.19,8.19,0,0,1,651.9,657.741Z" transform="translate(-412.449 -422.686)"/><path class="a" d="M401.95,677.9a10.323,10.323,0,0,1-10.03-7.813A9.574,9.574,0,0,1,397.3,659.8c4.523-2.044,10.776.294,12.917,4.858.29.619,1.075,1.514-.213,1.841-.958.243-2.127,1.6-3-.257a5.607,5.607,0,0,0-4.729-3.335,5.125,5.125,0,0,0-5.418,2.634c-1.195,2.062-1.468,4.154-.055,6.21a5.5,5.5,0,0,0,5.7,2.521c1.322-.224,1.921,0,2.337,1.3.588,1.828.483,2.126-1.466,2.324C402.905,677.944,402.426,677.9,401.95,677.9Z" transform="translate(-251.769 -423.554)"/><path class="a" d="M600.8,88.743c.759-3.489,1.478-7.228,2.416-10.912.439-1.722-.057-2.446-1.72-2.624-.529-.057-1.044-.243-1.573-.311-1.153-.149-2.055-.286-1.7-1.951.352-1.635,1.057-1.762,2.5-1.416,3.814.913,7.659,1.7,11.509,2.451,1.4.272,1.693.905,1.422,2.244-.287,1.414-.956,1.411-2.147,1.158-3.8-.806-3.8-.751-4.611,3.064-.63,2.965-1.352,5.911-1.915,8.888-.243,1.286-.855,1.67-1.945,1.143C602.25,90.1,600.674,90.784,600.8,88.743Z" transform="translate(-384.407 -45.869)"/><path class="d" d="M494.755,554.221a8.491,8.491,0,0,1,1.237.863c2.109,2.366,4.516,2.911,7.335,1.3a4.406,4.406,0,0,1,1.121-.3c.078.169.133.233.118.263-1.639,3.383-2.237,6.62,1.954,9.244a12.493,12.493,0,0,1-4.464.2,2.6,2.6,0,0,0-2.624,1.343,20.64,20.64,0,0,1-2.409,3.036c-.311-4.225-2.309-6.708-6.887-6.715l.252-.526a21.455,21.455,0,0,1,2.688-1.852,2.885,2.885,0,0,0,1.7-3.3C494.664,556.742,494.755,555.681,494.755,554.221Z" transform="translate(-314.995 -356.18)"/><path class="d" d="M433.521,242.255a21.042,21.042,0,0,1,2.68-2.116,3.21,3.21,0,0,0,1.664-3.846c-.172-.967-.177-1.963-.254-2.922.182-.049.268-.1.293-.074,2.924,2.564,6.017,3.54,9.3.773.227.307.3.373.291.4-1.534,3.5-1.592,6.694,2.29,9.094l-.4.319c-1.252.079-2.505.243-3.755.214a2.475,2.475,0,0,0-2.506,1.521c-.566,1.091-1.3,2.093-2.106,3.351-.542-1.44-1.078-2.605-1.411-3.825a2.469,2.469,0,0,0-2.189-1.936C436.216,242.984,435.041,242.634,433.521,242.255Z" transform="translate(-278.61 -149.929)"/><path class="d" d="M572.494,215.968c-3.969,1.452-5.763,4.053-4.357,8.4a9.59,9.59,0,0,1-3.491-2.3,2.539,2.539,0,0,0-2.883-.518,22.361,22.361,0,0,1-3.848,1.069c2.323-3.614,1.855-6.777-1.242-9.327.214-.3.252-.391.276-.387,3.817.629,6.881-.267,8.288-4.543l.355.323a32.409,32.409,0,0,1,1.094,3.586,2.342,2.342,0,0,0,2,2.116,35.265,35.265,0,0,1,3.5,1.172Z" transform="translate(-357.756 -133.906)"/><path class="d" d="M621.034,530.721c.8,4.185,2.844,6.683,7.524,6.382a13.736,13.736,0,0,1-3.369,2.967,2.271,2.271,0,0,0-1.014,2.407c.167,1.265.168,2.553.258,4.129-1.283-.844-2.372-1.439-3.315-2.213a2.419,2.419,0,0,0-2.916-.33,21.651,21.651,0,0,1-3.742,1.331c2.074-3.79,1.38-6.917-2.073-9.341.4-.22.5-.326.582-.315C616.868,536.245,619.616,534.831,621.034,530.721Z" transform="translate(-393.562 -341.077)"/><path class="a" d="M811.215,482.807c-.766,3.048-1.666,6.619-2.559,10.19-.182.727-.612.935-1.326.755q-7.6-1.913-15.215-3.794c-.909-.224-1.157-.7-.867-1.557a7.764,7.764,0,0,0,.342-1.383c.165-1.154.7-1.411,1.846-1.1,3.613.97,7.272,1.766,10.881,2.746,1.365.371,1.961.054,2.237-1.334.381-1.92.992-3.795,1.374-5.714.272-1.367,1.108-1.087,1.995-.915S811.594,481.1,811.215,482.807Z" transform="translate(-508.436 -308.836)"/><path class="a" d="M625.772,691.4c-.055.867-.885.787-1.431.972-2.979,1.008-2.356.89-3.212-1.652-1.495-4.441-2.852-8.929-4.384-13.356-.5-1.445.335-1.693,1.3-1.878.935-.181,2.116-1.47,2.737.442q2.418,7.447,4.843,14.892C625.674,690.99,625.711,691.165,625.772,691.4Z" transform="translate(-396.266 -433.733)"/><path class="a" d="M639.856,102.538c-.486-.162-1.1-.39-1.728-.568-.889-.251-1.066-.754-.775-1.614q2.484-7.347,4.9-14.718c.278-.851.633-1.09,1.545-.83,2.864.815,2.867.772,1.94,3.595q-2.115,6.435-4.209,12.877C641.281,102.023,641.1,102.844,639.856,102.538Z" transform="translate(-409.523 -54.439)"/><path class="a" d="M317.58,621.039a6.858,6.858,0,0,1-2.343-2.226c-.579-.859.321-1.28.784-1.732,3.481-3.4,7.005-6.757,10.482-10.163.84-.824,1.511-1.108,2.248.075a5.333,5.333,0,0,0,.964,1.044c.585.534.71,1.014.068,1.629-3.728,3.572-7.433,7.169-11.161,10.742A5.5,5.5,0,0,1,317.58,621.039Z" transform="translate(-202.472 -389.586)"/><path class="a" d="M694.966,657.687a6.819,6.819,0,0,1-2.641,2c-.764.432-1.036-.345-1.339-.8-2.77-4.142-5.47-8.333-8.3-12.433-.978-1.417-.063-1.865.866-2.438.854-.527,1.613-1.51,2.59.015,2.656,4.145,5.425,8.218,8.138,12.327A14.122,14.122,0,0,1,694.966,657.687Z" transform="translate(-438.471 -413.373)"/><path class="d" d="M660.989,506.4c2.987,3.367,2.987,3.367,6.626,3.277-2.049,2.086-2.791,4.257-.977,6.86-2.629-1.242-4.905-1.241-6.882,1.258.327-2.876-.347-5.017-3.334-6.064C659.191,511.1,661.128,509.859,660.989,506.4Z" transform="translate(-421.862 -325.449)"/><path class="d" d="M455.232,543.431c1.3,2.682,3.2,3.687,6.16,2.991-1.908,2.118-2.578,4.281-.561,6.958-1.707-.439-2.945-1.118-4.042-.937-1.041.172-1.932,1.244-3.267,2.186.625-3.024-.262-5.047-3.143-6.139C453.121,547.837,455.09,546.643,455.232,543.431Z" transform="translate(-289.444 -349.246)"/><path class="d" d="M411.132,269.842c-.573,2.974.451,4.845,3.268,5.953-2.764.621-4.645,1.912-4.58,5.074-1.317-.852-1.614-2.312-2.64-2.892-1.068-.6-2.42.032-4.088-.19,2.343-2,2.762-4.2,1.176-6.823C406.944,272.353,409.11,272.049,411.132,269.842Z" transform="translate(-259.054 -173.419)"/><path class="d" d="M610.31,234.393c2.71,1.711,4.856,1.269,6.851-.873-.4,2.93.53,4.928,3.372,6.009-2.835.554-4.672,1.867-4.8,5.043-1.418-2.516-3.3-3.8-6.525-2.766.957-1.42,2.039-2.369,2.205-3.459S610.817,236.047,610.31,234.393Z" transform="translate(-391.518 -150.076)"/><path class="a" d="M197.98,629.777a.568.568,0,0,1,.133.083c.016.017,0,.068-.008.1-.032-.07-.064-.141-.095-.212Z" transform="translate(-127.235 -404.721)"/><path class="a" d="M428.958,388.382c-.9,10.918-7.82,18.471-19.559,21.028-6.793,1.479-13.657,2.629-20.483,3.958-.971.189-1.355-.054-1.545-1.07q-3.953-21.21-8-42.4c-.147-.772-.194-1.24.728-1.39,8.093-1.323,16.04-3.707,24.235-4.18C419.69,363.437,429.291,374.055,428.958,388.382Zm-10.694-.511c-.046-.6-.086-1.317-.155-2.027-.813-8.37-7.391-13.664-15.694-12.511-3.351.465-6.661,1.227-10,1.785-.917.153-1.161.441-.976,1.388q2.439,12.508,4.76,25.039c.2,1.078.526,1.42,1.6,1.2,3.2-.657,6.451-1.117,9.619-1.9C414.108,399.177,418.191,394.237,418.263,387.871Z" transform="translate(-243.755 -234.106)"/><path class="a" d="M643.7,365.078c-3.241.614-6.451,1.191-9.645,1.848a1.561,1.561,0,0,1-1.885-.852c-1.388-2.217-2.877-4.371-4.264-6.589a1.745,1.745,0,0,0-2.143-.969c-6,1.2-12.02,2.308-18.04,3.413a1.681,1.681,0,0,0-1.6,1.54c-.461,2.572-1.1,5.113-1.552,7.687a1.745,1.745,0,0,1-1.664,1.681c-2.578.426-5.151.907-7.7,1.472-1.415.313-1.627-.134-1.319-1.415q3.124-12.994,6.179-26.006c1.517-6.417,3.058-12.829,4.508-19.261a2.285,2.285,0,0,1,2.154-2.058c2.525-.388,5.031-.9,7.535-1.413a1.374,1.374,0,0,1,1.644.624q13.769,19.869,27.575,39.712A2.9,2.9,0,0,1,643.7,365.078ZM612.234,335.6a3.137,3.137,0,0,0-.305.587q-1.719,8.09-3.427,16.182c-.2.922.156,1.155,1.031.987q5.853-1.124,11.716-2.194c.713-.131.931-.376.486-1.051C618.578,345.31,615.439,340.5,612.234,335.6Z" transform="translate(-381.593 -208.288)"/><path class="a" d="M738.4,346.809a30.13,30.13,0,0,1-10.69-1.693c-1.083-.388-1.52-.865-1.161-2.084.57-1.936.989-3.918,1.421-5.892.212-.969.547-1.183,1.553-.783a25.814,25.814,0,0,0,15.933,1.075,10.679,10.679,0,0,0,4.666-2.123c2.609-2.264,2.038-5.522-1.183-6.755-2.437-.933-5.025-.88-7.567-1.017a76.886,76.886,0,0,1-8.881-.806c-4.615-.792-8.361-2.855-9.938-7.577-1.634-4.892-.9-9.424,2.669-13.281,3.793-4.1,8.825-5.694,14.125-6.566a31.212,31.212,0,0,1,13.794.689c1.054.3,1.589.661,1.233,1.947a57.178,57.178,0,0,0-1.161,5.768c-.182,1.077-.579,1.345-1.677,1a23.206,23.206,0,0,0-14.049-.207,7.96,7.96,0,0,0-4.331,2.654c-1.881,2.538-.921,5.46,2.1,6.305,3.3.923,6.725.755,10.1,1a43.312,43.312,0,0,1,7.6.946c4.378,1.123,7.623,3.57,8.747,8.2a12.461,12.461,0,0,1-3.878,12.97c-5.089,4.609-11.406,5.864-18,6.215C739.357,346.829,738.88,346.807,738.4,346.809Z" transform="translate(-463.832 -192.059)"/><path class="a" d="M245.165,396.6c-.762,3.371-1.515,6.732-2.281,10.09-2.245,9.844-4.517,19.682-6.72,29.535a2.252,2.252,0,0,1-2.2,2.029c-2.7.386-5.4.87-8.053,1.507-1.565.375-1.471-.139-1.189-1.338,2.813-11.966,5.564-23.947,8.385-35.912.317-1.343.489-1.943-1.327-1.529-3.821.87-7.688,1.551-11.555,2.193-1.143.19-1.366.659-1.153,1.661.333,1.569.562,3.162.943,4.717.228.929-.049,1.294-.95,1.448-2.4.411-4.8.862-7.186,1.33-.584.114-.97.214-1.121-.6-.878-4.73-1.8-9.451-2.726-14.173-.2-1.006.508-1.01,1.162-1.133q10.331-1.951,20.661-3.915c4.143-.785,8.294-1.528,12.425-2.369,1.149-.234,1.736-.162,1.892,1.2C244.376,393.108,244.823,394.845,245.165,396.6Z" transform="translate(-133.676 -250.664)"/><path class="a" d="M536.771,343.529c.927-.175.9.528,1.01,1.095q2.878,15.224,5.751,30.45c.76,4.025,1.485,8.057,2.3,12.071.172.846.031,1.136-.825,1.287-2.805.494-5.6,1.045-8.392,1.619-1.029.212-1.168-.362-1.317-1.153q-3.374-17.941-6.784-35.876c-.42-2.216-.808-4.44-1.267-6.648-.13-.625-.131-1.041.6-1.176Q532.307,344.368,536.771,343.529Z" transform="translate(-338.802 -220.757)"/><path class="c" d="M440.016,403.883c-.072,6.367-4.155,11.306-10.849,12.969-3.168.787-6.417,1.248-9.619,1.9-1.071.219-1.4-.123-1.6-1.2q-2.3-12.534-4.76-25.039c-.185-.946.059-1.234.976-1.388,3.34-.558,6.649-1.32,10-1.785,8.3-1.153,14.881,4.141,15.694,12.511C439.93,402.566,439.97,403.279,440.016,403.883Z" transform="translate(-265.507 -250.119)"/><path class="c" d="M638.646,356.285c3.2,4.9,6.344,9.71,9.5,14.511.445.676.227.921-.486,1.051q-5.862,1.077-11.716,2.194c-.875.168-1.227-.065-1.031-.987q1.719-8.09,3.427-16.182A3.134,3.134,0,0,1,638.646,356.285Z" transform="translate(-408.004 -228.973)"/></g></g></svg>