<svg xmlns="http://www.w3.org/2000/svg" xmlns:xlink="http://www.w3.org/1999/xlink" width="130" height="130" viewBox="0 0 130 130"><defs><clipPath id="a"><rect width="130" height="130" transform="translate(1345 1507)" fill="#fff"/></clipPath></defs><g transform="translate(-1345 -1507)" clip-path="url(#a)"><path d="M121.791,43.182V37.89a10.815,10.815,0,0,0-8.119-10.442V23.7c8.519-1.106,13.893-2.065,14.019-2.088a2.706,2.706,0,0,0-.973-5.323,394.247,394.247,0,0,1-61.762,5.368A394.247,394.247,0,0,1,3.193,16.284a2.706,2.706,0,1,0-.973,5.323c.126.023,5.5.982,14.019,2.088v3.754A10.815,10.815,0,0,0,8.119,37.89v5.292A36.524,36.524,0,0,0,.005,68.116c.264,19,11.513,40.142,18.94,40.142s18.676-21.144,18.94-40.142a36.524,36.524,0,0,0-8.114-24.934V37.89a10.815,10.815,0,0,0-8.119-10.442V24.365a388.131,388.131,0,0,0,40.6,2.672v5.825A10.815,10.815,0,0,0,54.129,43.3V48.6a36.524,36.524,0,0,0-8.114,24.934c.264,19,11.513,40.142,18.94,40.142s18.676-21.144,18.94-40.142A36.524,36.524,0,0,0,75.781,48.6V43.3a10.815,10.815,0,0,0-8.119-10.442V27.037a388.111,388.111,0,0,0,40.6-2.672v3.084a10.815,10.815,0,0,0-8.119,10.442v5.292a36.524,36.524,0,0,0-8.114,24.934c.264,19,11.513,40.142,18.94,40.142S129.64,87.114,129.9,68.116A36.524,36.524,0,0,0,121.791,43.182ZM19.072,102.856c-3.193-.8-13.4-16.389-13.654-34.814a31.119,31.119,0,0,1,7.015-21.594A9.488,9.488,0,0,1,18.945,43.3a9.488,9.488,0,0,1,6.512,3.145,31.119,31.119,0,0,1,7.014,21.594C32.218,86.466,22.011,102.052,19.072,102.856ZM24.358,37.89v1.263a13.068,13.068,0,0,0-10.826,0V37.89a5.413,5.413,0,0,1,10.826,0Zm40.724,70.379c-3.193-.8-13.4-16.389-13.654-34.814a31.119,31.119,0,0,1,7.015-21.594,9.488,9.488,0,0,1,6.512-3.145,9.488,9.488,0,0,1,6.512,3.145,31.119,31.119,0,0,1,7.015,21.594c-.253,18.425-10.461,34.011-13.4,34.814ZM70.368,43.3v1.263a13.068,13.068,0,0,0-10.826,0V43.3a5.413,5.413,0,1,1,10.826,0Zm40.6-10.826a5.418,5.418,0,0,1,5.413,5.413v1.263a13.068,13.068,0,0,0-10.826,0V37.89A5.418,5.418,0,0,1,110.965,32.477Zm.127,70.379c-3.193-.8-13.4-16.389-13.654-34.814a31.119,31.119,0,0,1,7.015-21.594,9.488,9.488,0,0,1,6.512-3.145,9.488,9.488,0,0,1,6.512,3.145,31.119,31.119,0,0,1,7.015,21.594c-.253,18.425-10.461,34.011-13.4,34.814Z" transform="translate(1345.045 1507.045)" fill="#faf2e7"/></g></svg>