<svg xmlns="http://www.w3.org/2000/svg" xmlns:xlink="http://www.w3.org/1999/xlink" width="30" height="30" viewBox="0 0 30 30"><defs><clipPath id="a"><rect width="30" height="30" transform="translate(727 380)" fill="#f8f6f1"/></clipPath><clipPath id="b"><rect width="30" height="30" transform="translate(414 1098)" fill="#f8f6f1"/></clipPath></defs><g transform="translate(-727 -380)" clip-path="url(#a)"><g transform="translate(313 -718)" clip-path="url(#b)"><g transform="translate(410.666 1094.666)"><path d="M17.778,24.349v2.88a.556.556,0,0,0,1.111,0v-2.88a1.667,1.667,0,1,0-1.111,0ZM10,15.556v-3.89a8.333,8.333,0,1,1,16.667,0v3.889A3.342,3.342,0,0,1,30,18.9v5.544a8.894,8.894,0,0,1-8.888,8.888H15.554a8.892,8.892,0,0,1-8.887-8.888V18.9A3.336,3.336,0,0,1,10,15.556Zm3.334,0V11.668a5,5,0,1,1,10,0v3.888Z" fill="#f8f6f1" fill-rule="evenodd"/></g></g></g></svg>