<svg xmlns="http://www.w3.org/2000/svg" xmlns:xlink="http://www.w3.org/1999/xlink" width="130" height="130" viewBox="0 0 130 130"><defs><clipPath id="a"><rect width="130" height="130" transform="translate(1045 1507)" fill="#fff"/></clipPath></defs><g transform="translate(-1045 -1507)" clip-path="url(#a)"><g transform="translate(1044.996 1507)"><path d="M97.972,19.24a10.843,10.843,0,1,0,3.089-10.965A73.02,73.02,0,0,0,67.708,0C47.943,0,31.894,19.6,28.036,27.736a13.528,13.528,0,0,0-8.7,8.61l-.566,1.709a8.035,8.035,0,0,0,1.114,7.321,8.208,8.208,0,0,0,1.426,1.51A25.286,25.286,0,0,0,10.833,65a19.246,19.246,0,0,0,4.822,14.4C14.2,83.26,11.934,91.6,17.043,96.707a21.045,21.045,0,0,0,10.783,5.977c1.833,4.623,7.853,17.766,18.5,22.32a18.443,18.443,0,0,0,7.929,1.582,2.67,2.67,0,0,0-.074,1.018,2.707,2.707,0,0,0,2.69,2.4c22.934,0,36.48-21.6,39.641-27.274a20.923,20.923,0,0,0,11.024-6.02c5.11-5.11,2.843-13.446,1.389-17.3A19.246,19.246,0,0,0,113.75,65a25.286,25.286,0,0,0-10.474-18.115,8.208,8.208,0,0,0,1.426-1.51,8.04,8.04,0,0,0,1.116-7.318l-.571-1.714a13.505,13.505,0,0,0-8.264-8.437c-3.549-3.248-4.512-5.4-4.207-6.257C93.14,20.625,95.478,19.7,97.972,19.24Zm10.361-8.407a5.417,5.417,0,1,1-5.417,5.417,5.417,5.417,0,0,1,5.417-5.417ZM93.1,48.75A42.752,42.752,0,0,1,97.5,65,9.954,9.954,0,0,1,86.667,75.833a22.612,22.612,0,0,1-8.384-2.079,39.973,39.973,0,0,0-31.982,0,22.612,22.612,0,0,1-8.384,2.079A9.954,9.954,0,0,1,27.083,65a42.906,42.906,0,0,1,4.4-16.25ZM108.333,65c0,8.823-3.8,11.048-3.888,11.1a2.712,2.712,0,0,0-1.251,3.634c1.248,2.55,3.777,9.879.516,13.14A14.427,14.427,0,0,1,94.771,97.5a2.711,2.711,0,0,0-2.4,1.5c-.111.225-9.974,19.672-27.546,24.5a7.329,7.329,0,0,0,.18-1.632,2.708,2.708,0,0,0-3.854-2.454,14.812,14.812,0,0,1-12.674.608c-10.505-4.48-16.06-20.527-16.115-20.691A2.757,2.757,0,0,0,29.842,97.5a14.4,14.4,0,0,1-8.969-4.623c-3.261-3.261-.733-10.59.516-13.14a2.793,2.793,0,0,0-1.182-3.6c-.161-.09-3.957-2.314-3.957-11.137a20,20,0,0,1,8.323-13.788A41.3,41.3,0,0,0,21.667,65a15.229,15.229,0,0,0,16.25,16.25,27.436,27.436,0,0,0,10.32-2.436,34.626,34.626,0,0,1,28.11,0,27.436,27.436,0,0,0,10.32,2.436A15.229,15.229,0,0,0,102.917,65a41.3,41.3,0,0,0-2.906-13.788A20,20,0,0,1,108.333,65Zm-8.226-26.946.571,1.714a2.709,2.709,0,0,1-2.568,3.565H26.472a2.707,2.707,0,0,1-2.566-3.568l.566-1.709a8.12,8.12,0,0,1,7.71-5.557H92.4A8.115,8.115,0,0,1,100.108,38.054ZM87.674,19.826a8.226,8.226,0,0,0,1.375,7.257H34.644C39.7,19.346,52.725,5.417,67.708,5.417A68.434,68.434,0,0,1,98.1,12.852c-.1.3-.211.6-.286.918C94.554,14.236,89.171,15.629,87.674,19.826Z" fill="#faf2e7"/><path d="M70.914,82.392a11.449,11.449,0,0,1-8.622,4.274,11.264,11.264,0,0,1-8.633-4.287,2.709,2.709,0,1,0-4.412,3.145,16.25,16.25,0,0,0,26.089,0,2.709,2.709,0,1,0-4.422-3.131Z" fill="#f2e5b2"/><circle cx="5.417" cy="5.417" r="5.417" transform="translate(43.333 54.167)" fill="#f2e5b2"/><circle cx="5.417" cy="5.417" r="5.417" transform="translate(70.417 54.167)" fill="#f2e5b2"/></g></g></svg>