<svg xmlns="http://www.w3.org/2000/svg" viewBox="0 0 439.23 439.11"><g id="Camada_2" data-name="Camada 2"><g id="Camada_1-2" data-name="Camada 1"><path d="M0,107.23c2.33-3.48,5.58-4.86,9.77-4.81,26,.31,52-.69,78,.53,27.47,1.28,51.77,11.2,72.69,28.88,24.84,21,39.26,47.88,43.47,80.13a142.58,142.58,0,0,1,1,17.54q.17,32.37,0,64.74A11.57,11.57,0,0,0,207,301c4.64,7,9.13,14.11,14.3,22.15.31-2.64.62-4.33.7-6A1113.37,1113.37,0,0,1,234,196.5a38.2,38.2,0,0,0,.24-5.56c0-21.16-.08-42.31,0-63.46.22-44.22,18-79.64,54-105.4C305.39,9.82,324.83,3,345.82.74,347.23.59,348.71.83,350,0h84.06c4,2.31,5.25,5.78,5.18,10.38-1.4,92.5-67.43,171.91-158.48,190.51A188.56,188.56,0,0,1,251,204.58c-2.86.12-3.68,1.21-4.09,4q-7.35,51-9.85,102.37c-1.47,30.7-2.38,61.44,3.1,91.93a95.28,95.28,0,0,0,6.59,22.54c.47,1,.9,2.1,1.27,3.18,1.58,4.57.1,8.3-3.89,9.91-3.77,1.51-7.42,0-9.47-4.26-4-8.27-6.4-17.07-8.27-26-3.56-17.15-4.29-34.57-5-52a12.4,12.4,0,0,0-1.46-5.69c-7.56-13.95-16-27.4-24.57-40.71a5.35,5.35,0,0,0-4.8-2.75C109.2,303.3,42,254.88,12.58,178.86A184.19,184.19,0,0,1,.76,126,37.3,37.3,0,0,0,0,121.81ZM252.07,189.9c5.87-.6,11-.91,16.06-1.67a181.46,181.46,0,0,0,78.09-31A181.58,181.58,0,0,0,404,91.05a183,183,0,0,0,20.08-72.51c.23-3.46-.58-4-3.72-4-19.73.12-39.46.08-59.18.06-22.1,0-42.79,5.17-61.37,17.32-27.39,17.91-44.07,43-49.43,75.4-2.73,16.47-1.22,33.09-1.59,49.65,0,1.91,0,3.83,0,6,.73-.42,1-.49,1.18-.69,1.31-2,2.6-4.09,3.89-6.14,15.28-24.22,33.42-46.09,55.2-64.65a44.07,44.07,0,0,0,14.52-23.46c2.57-9.84,3.16-19.21-6.31-26.34-2.86-2.16-2.76-6.48-.59-9.33a7.08,7.08,0,0,1,9.56-1.69A25.9,25.9,0,0,1,337,43.11c3.22,7.63,3.24,15.55,1.9,24.18,5.81-3.73,11.13-7.23,16.53-10.61a206.35,206.35,0,0,1,21.82-11.87,7.18,7.18,0,0,1,9.84,3.32c1.71,3.48.51,7.16-3.22,9.53-1.81,1.14-3.73,2.11-5.62,3.11A296.65,296.65,0,0,0,312.8,108c-1,1-2.37,1.64-2.71,3.51a67,67,0,0,1,19.26-1.36c10,.82,19.44,3.37,26.63,11.06,3.35,3.59,3.38,7.65.34,10.64-2.87,2.82-7.05,2.85-10.34-.29-4.24-4.06-9.33-5.86-15-6.56-11.67-1.44-22.63,1.47-33.57,5a27.47,27.47,0,0,0-14,9.75A286.71,286.71,0,0,0,252.07,189.9ZM185.66,292.21c-.43-1.14-.58-1.68-.82-2.17a332.49,332.49,0,0,0-28.59-45.69A33.59,33.59,0,0,0,136,230.69c-15.47-3.68-30.77-7.52-44.65,4.72-2.52,2.23-6,1.38-8.57-1.15a6.53,6.53,0,0,1-1.07-8.61,17.68,17.68,0,0,1,4-4.39c7.15-5.8,15.55-8.14,24.61-8.58a85.41,85.41,0,0,1,18.06,1A215.39,215.39,0,0,0,110.33,197a300.88,300.88,0,0,0-52.51-35.35c-.75-.4-1.52-.78-2.24-1.25-3.91-2.55-5.14-6.3-3.25-9.88,2-3.75,6-5,10.33-2.85a255.67,255.67,0,0,1,33.12,19.65c1.32.92,2.42,2.41,4.54,2.36a45.43,45.43,0,0,1-.73-13.28c.91-9.4,4.43-17.38,12.65-22.72,3.83-2.49,7.81-1.92,10.25,1.4a7.06,7.06,0,0,1-1.47,9.9c-6.07,4.63-7.48,10.87-6.79,17.91.65,6.6,2.91,12.73,5.56,18.79a30,30,0,0,0,7.9,10.9,301.31,301.31,0,0,1,60.11,72.17c.6,1,.78,2.49,2.57,2.64,0-12.52,0-24.94,0-37.37.05-22.54-5.15-43.66-17.77-62.51-20.46-30.55-49.07-47.68-85.9-49.85-16.38-1-32.86-.37-49.29-.47-6.43,0-12.86,0-19.3,0-1.71,0-3.32-.29-3.13,2.58A183.79,183.79,0,0,0,31.4,185.83,181.28,181.28,0,0,0,88.84,256.6C117.43,277.8,149.56,289.47,185.66,292.21Z"/><path d="M315.28,256.37a6.6,6.6,0,0,1,6.43,5.64c.48,2.23.49,4.57,1.1,6.75,2.45,8.71,8.07,14.24,17,16.18,1.8.39,3.69.42,5.5.8,3.67.79,5.77,3.17,5.86,6.89a6.59,6.59,0,0,1-5.13,7,25.52,25.52,0,0,1-4.2.66,21.69,21.69,0,0,0-19.42,19.15c-.05.43-.08.86-.15,1.28-.84,5.82-3.4,8.71-7.65,8.61s-6.72-3.07-7.4-8.89c-1.38-11.73-8.82-19-20.67-20.21-5.28-.54-8.34-3.27-8.32-7.45,0-4,2.86-6.61,7.95-7.29,12.94-1.71,19.13-7.93,21.13-21.23C308.1,259,310.55,256.42,315.28,256.37Zm7.07,36.31c-2.64-2.44-5-4.63-7.43-6.77-.13-.12-.8.18-1.05.44-2.06,2.13-4.34,4.14-5.87,6.6-.27.43,2.61,2.93,4.18,4.32.95.84,1.48,3.26,3.05,2.16C317.72,297.66,319.74,295.22,322.35,292.68Z"/><path d="M102.11,344c.75-3.81.29-7.65.29-11.48,0-2.33.65-3.15,3.13-3.21,11.52-.32,11.51-.4,11.63,10.89,0,1.27.22,2.54.33,3.8l.12-.11H102Z"/><path d="M117.49,358.51c-.75,3.82-.28,7.68-.3,11.52,0,2.29-.57,3.2-3.1,3.28-11.55.4-11.54.48-11.65-11,0-1.27-.22-2.54-.33-3.81l-.1.1H117.6Z"/><path d="M395.53,219.67c0-4,0-8-.2-11.95-.07-2,.52-2.66,2.61-2.79,12-.75,12-.81,12,11.31v3.42l.12-.12H395.4Z"/><path d="M395.54,234.1c-4.11,0-8.23,0-12.35.13-1.81.06-2.68-.56-2.48-2.42a8.26,8.26,0,0,0,0-.86c-.36-11.36-.36-11.36,11-11.35,1.28,0,2.56,0,3.83.07l-.13-.13v14.7Z"/><path d="M410,219.66c1.28,0,2.55-.06,3.83-.06,12.24,0,12.18,0,10.84,12.42-.22,2-1.15,2.23-2.73,2.2-4-.07-7.95-.07-11.93-.1l.11.12v-14.7Z"/><path d="M410,234.12c0,4-.09,8,0,12,.05,2-.58,3-2.66,2.73a3.08,3.08,0,0,0-.43,0c-14.4-.72-11.37,4.16-11.38-14.73l-.14.14h14.7Z"/><path d="M102.11,358.51c-3.7,0-7.4,0-11.1.15-2.31.11-3.19-.56-3.28-3.06-.45-11.6-.53-11.6,11-11.59l3.42,0-.12-.11a48.24,48.24,0,0,1,0,14.69Z"/><path d="M117.49,344c1.43,0,2.86-.11,4.27,0,3.21.24,7.81-1.54,9.32.76,2.14,3.25.58,8,.68,12.09.05,1.93-1.48,1.74-2.74,1.74-3.84,0-7.69-.07-11.53-.11l.11.1a47.92,47.92,0,0,1,0-14.69Z"/><path d="M366.65,401.94c-4.35,1.26-8.8.32-13.2.57-1.83.11-1.92-1.11-2.05-2.51-1.13-11.92-.51-12.51,11.41-12.17,2.78.08,3.28,1.15,3.31,3.58.05,3.54-.63,7.12.45,10.61Z"/><path d="M352.06,416.53c-4.34,1.34-8.8.39-13.19.63-1.78.1-2-1-2.14-2.46-1.26-11.91-.82-12.3,11-12.24,3.15,0,3.81,1.15,3.79,4,0,3.37-.74,6.83.49,10.15Z"/><path d="M366.57,402c3.61,1.09,7.3.41,10.95.46,2.33,0,3.15.73,3.24,3.17.47,11.84-.5,12.8-12.28,11.56-1.46-.15-2.5-.4-2.4-2.15.26-4.37-.65-8.78.57-13.11Z"/><path d="M352,416.61c3.59,1.22,7.28.45,10.92.52,2.36,0,3.28.76,3.2,3.2-.49,14.17,2.67,11.11-11.46,11.55-2.29.07-3.46-.58-3.24-3.09.35-4.07-.66-8.22.66-12.25C352.06,416.53,352,416.61,352,416.61Z"/><path d="M168.18,102.29c-4.08-.1-6.57-2.52-7.08-7.58-.86-8.58-4.58-15.15-12.38-19.2-3-1.55-6.25-1.87-9.49-2.37-4.87-.76-7.34-3.28-7.29-7.36s2.63-6.78,7.49-7.22a24.26,24.26,0,0,0,12.73-4.43c5.78-4.3,8.21-10.28,9-17.28.69-6.33,5.94-9.28,10.87-6.44,2.65,1.52,3.42,4.05,3.77,6.82,1.64,13.05,8.07,19.53,21.06,21.21,5.06.66,8,3.3,8.08,7.3s-2.75,6.67-7.8,7.46c-13.83,2.17-19.11,7.59-21.4,21.9C175,99.78,172.24,102.39,168.18,102.29Zm7.31-36.24a6.17,6.17,0,0,0-.68-1.08c-2.13-2-4.1-4.35-6.57-5.86-.45-.28-3,2.62-4.39,4.18-.86.95-3.26,1.59-2.13,3.08,1.86,2.44,4.64,6.23,6.62,6C170.91,72.06,173.07,68.37,175.49,66.05Z"/><path d="M37,37c-.12-1.41-.31-2.82-.33-4.23C36.58,21.15,36.59,21.21,48.41,22c2.22.14,3,.88,2.93,3.06-.09,4,0,8,.09,12l.1-.12-14.7,0Z"/><path d="M37,51.43c-4,0-8-.18-11.95-.09-2.18,0-2.92-.71-3.06-2.92-.75-11.83-.81-11.84,10.8-11.75,1.41,0,2.82.22,4.24.33l-.17-.17,0,14.7Z"/><path d="M51.43,37c1.12-.1,2.25-.28,3.38-.3,11.89-.14,11.82-.14,11.2,11.77-.12,2.28-.9,2.94-3,2.89-3.84-.08-7.68.05-11.53.09l.11.13a92.49,92.49,0,0,1,0-14.7Z"/><path d="M51.44,51.42c0,3.7-.22,7.4-.09,11.1C51.44,65,50.75,66,48,66c-11.49.26-11.5.36-11.36-11.21,0-1.13.2-2.25.3-3.38l-.12.1a92.49,92.49,0,0,1,14.7,0Z"/></g></g></svg>