<svg xmlns="http://www.w3.org/2000/svg" viewBox="0 0 371.54 468.54"><g id="Camada_2" data-name="Camada 2"><g id="Camada_1-2" data-name="Camada 1"><path d="M288,0a30.57,30.57,0,0,1,9.89,7.14q33.63,33.72,67.44,67.27a19.65,19.65,0,0,1,6.21,15q-.15,181.15-.08,362.32c0,11.65-5.1,16.79-16.67,16.79H17C5.13,468.54.09,463.43.09,451.47Q.09,234.39,0,17.33C0,8.79,2.93,2.93,11.09,0ZM27.84,234.18q0,100.86,0,201.73c0,3-.07,5,4.18,5q153.77-.18,307.53,0c3.53,0,4.3-1.13,4.29-4.45q-.12-165.83,0-331.64c0-3.57-.95-4.69-4.59-4.67-17.11.09-34.22-.07-51.33-.17-11.94-.06-16.84-5-16.86-17,0-16.62-.17-33.24.09-49.86.08-4.52-1.38-5.49-5.68-5.48q-115.95.2-231.91,0c-4.64,0-5.82,1.13-5.81,5.78Q28,133.78,27.84,234.18ZM321.38,72.3,298.92,49.85c0,5.87,0,12.71,0,19.55,0,1.64,0,3,2.32,2.94C308.35,72.25,315.48,72.3,321.38,72.3Z"/><path d="M178.23,320.85H94.83a25.15,25.15,0,0,1-8.16-.89,13.77,13.77,0,0,1,.23-26.14,21.53,21.53,0,0,1,6.78-.88q84.54,0,169.09,0c10,0,16.24,5.51,16.19,14.07a13.45,13.45,0,0,1-11.41,13.41,39.91,39.91,0,0,1-6.38.39Q219.7,320.87,178.23,320.85Z"/><path d="M178.41,181.75H261.8c2.75,0,5.51-.1,8.15.87a13.84,13.84,0,0,1-2.79,26.66,32.42,32.42,0,0,1-5,.22H94.42a22.74,22.74,0,0,1-7.69-.88,13.92,13.92,0,0,1-9.27-14.24A13.62,13.62,0,0,1,89.52,182a51.38,51.38,0,0,1,6-.23Z"/><path d="M178.24,265.32H94.38a22.54,22.54,0,0,1-7.25-.75,14,14,0,0,1-9.73-13.95,13.73,13.73,0,0,1,12.17-12.84,51.12,51.12,0,0,1,5.94-.24q82.71,0,165.42,0c1.83,0,3.67,0,5.49.19A13.49,13.49,0,0,1,279,251.05a13.74,13.74,0,0,1-12.28,14.12,40.3,40.3,0,0,1-5,.15Z"/><path d="M138.77,126.25c15.72,0,31.44-.1,47.16,0,7.3.07,12.7,5.16,13.65,12.28a13.74,13.74,0,0,1-9.83,14.68,17.93,17.93,0,0,1-5,.59q-46.24,0-92.49,0c-5.87,0-10.42-2.2-13.22-7.37a13,13,0,0,1,.58-13.89c2.86-4.45,7.11-6.42,12.4-6.41,15.57,0,31.14,0,46.71,0Z"/></g></g></svg>