<svg xmlns="http://www.w3.org/2000/svg" viewBox="0 0 469.46 468.55"><g id="Camada_2" data-name="Camada 2"><g id="Camada_1-2" data-name="Camada 1"><path d="M469.46,309.31c-1.4,2.83-2.5,5.85-4.24,8.45-5.74,8.61-19.47,13.07-29.52,9.68a7.2,7.2,0,0,1-5.19-7.3c0-3.49,1.77-6.19,5.29-7.17a23.11,23.11,0,0,1,5.88-.65c10.23-.11,12.16-2.05,12.16-12.43V190.11c0-35.83,0-71.66.07-107.49,0-3.44-.69-4.68-4.47-4.68q-214.71.15-429.43,0c-3.77,0-4.46,1.25-4.46,4.68q.13,109.55.07,219.1c0,8,2.58,10.49,10.78,10.59a34.64,34.64,0,0,1,6.37.46c4,.82,6.58,4,6.18,7.82-.44,4.11-2.73,6.6-7,7.18C16,329.94,7.86,325.23,0,309.31V19.22Q4.35,4.34,19.26,0H450.2q14.91,4.34,19.26,19.22ZM234.77,62.38h28.42q92.81,0,185.62.08c3.84,0,5.29-.65,5.14-4.91-.36-10.36-.1-20.74-.12-31.1,0-8.28-2.63-10.86-11.05-10.86H27.06c-9,0-11.43,2.44-11.44,11.39,0,9.91.25,19.83-.11,29.73-.17,4.54.94,5.8,5.67,5.79Q128,62.25,234.77,62.38Z"/><path d="M234.7,203.09q77.22,0,154.44,0c12.84,0,21.62,6.34,24.73,17.59a30,30,0,0,1,.71,8.16q0,107,0,214.06c0,16.14-9.5,25.62-25.62,25.62q-154.2,0-308.42,0c-16.12,0-25.66-9.47-25.66-25.57q-.06-107.26,0-214.52c0-15.85,9.53-25.32,25.38-25.34Q157.48,203.06,234.7,203.09Zm.23,78q-79.77,0-159.53-.1c-4.13,0-5,1.14-5,5.08q.2,78,.09,156c0,8.43,2.48,10.9,10.91,10.9H388.1C396.5,453,399,450.47,399,442q0-78,.1-156c0-4-1-5-5-5Q314.47,281.18,234.93,281.05Zm-.69-15.6q80,0,159.94.08c3.69,0,5-.73,4.88-4.68-.29-10.82-.07-21.65-.12-32.47,0-6.95-2.76-9.68-9.74-9.68q-154.44,0-308.88,0c-7,0-9.77,2.72-9.81,9.62-.05,10.68.2,21.35-.12,32-.13,4.25,1.16,5.21,5.29,5.2Q155,265.33,234.24,265.45Z"/><path d="M234.71,171.89H424.9c1.53,0,3.06,0,4.58,0,5.2.2,8.55,3.16,8.63,7.57s-3.3,7.56-8.36,8c-1.37.12-2.75,0-4.13,0q-190.87,0-381.75,0a30,30,0,0,1-6.36-.47c-3.91-.86-6.61-4.37-6.1-7.94.59-4,2.86-6.69,7.16-7.07,1.66-.15,3.35-.11,5-.11Z"/><path d="M234.49,109.3q-95.09,0-190.18,0c-2,0-4,0-5.94-.23-4.32-.44-6.51-3.19-7-7.23C31,98.09,34,94.73,38.17,94a26.57,26.57,0,0,1,4.55-.32h384c.92,0,1.84,0,2.75,0,5.23.42,8.53,3.39,8.61,7.72.08,4.52-3.33,7.57-8.86,7.87-1.52.08-3.05,0-4.58,0Z"/><path d="M234.51,148.31H43c-7.79,0-11.72-2.66-11.64-7.85s4-7.74,11.83-7.74H426.27c2.13,0,4.27-.19,6.36.54,3.64,1.26,5.56,3.95,5.38,7.61a7.26,7.26,0,0,1-6.45,7.23,31.38,31.38,0,0,1-5.49.2Z"/><path d="M70.38,31.28a7.79,7.79,0,0,1,7.68,7.5,7.58,7.58,0,0,1-7.62,7.92,7.84,7.84,0,0,1-7.81-7.86A8.13,8.13,0,0,1,70.38,31.28Z"/><path d="M39.25,46.7a7.89,7.89,0,0,1-7.93-7.76A8.21,8.21,0,0,1,39,31.26a7.91,7.91,0,0,1,7.81,7.88A7.64,7.64,0,0,1,39.25,46.7Z"/><path d="M101.53,46.7A7.67,7.67,0,0,1,94,39.08a7.87,7.87,0,0,1,7.86-7.79,7.71,7.71,0,0,1,7.43,8.16A7.52,7.52,0,0,1,101.53,46.7Z"/><path d="M187.86,367c0-9.6-.08-19.19,0-28.79.16-14.42,12.29-22,25.32-15.66,19.43,9.48,38.75,19.22,58.08,28.93,6.32,3.17,10.23,8.15,10.23,15.49s-3.86,12.31-10.21,15.49C252,392.2,232.65,402,213.22,411.45c-13,6.37-25.18-1.22-25.34-15.62C187.78,386.23,187.86,376.64,187.86,367Zm15.61.1c0,9.14.09,18.28-.05,27.42,0,3.3.75,4.07,3.87,2.49,18.64-9.4,37.33-18.69,56-28,.93-.46,2.24-.72,2.33-1.93s-1.26-1.56-2.17-2Q235.24,351,207,336.85c-3-1.51-3.64-.54-3.6,2.41C203.53,348.55,203.47,357.85,203.47,367.14Z"/><path d="M305.28,367.63c0-6.73,5.52-9.92,12.09-7.17,12.65,5.3,25.23,10.74,37.84,16.12,4.62,2,9.25,3.92,13.85,5.94,7.43,3.28,8.57,8.9,3,14.64-3.52,3.6-7,7.21-10.7,10.64-1.78,1.66-1.72,2.73,0,4.36,3.67,3.44,7.2,7,10.69,10.65,4,4.14,4.33,8.81,1,12.09s-7.83,2.94-12.11-1.2c-3.28-3.18-6.64-6.31-9.66-9.73-2.18-2.45-3.63-2.9-6-.14a126.27,126.27,0,0,1-10.65,10.68c-5.42,4.95-11.83,3.13-13.66-4-5.2-20.17-10.21-40.4-15.28-60.6A21.16,21.16,0,0,1,305.28,367.63Zm27.38,45.64c7-6.92,13.7-13.63,20.61-20.52l-28.88-12.3C327.32,392.09,330,402.76,332.66,413.27Z"/><path d="M101.66,242.27a7.94,7.94,0,0,1-8.19,7.51,7.72,7.72,0,0,1,.85-15.42A8.06,8.06,0,0,1,101.66,242.27Z"/><path d="M164.16,242.24a7.81,7.81,0,0,1-7.61,7.56,8,8,0,0,1-7.85-7.89,8.11,8.11,0,0,1,7.71-7.58A7.86,7.86,0,0,1,164.16,242.24Z"/><path d="M125.22,249.8a8,8,0,0,1-7.79-7.92,8.07,8.07,0,0,1,7.72-7.56,7.74,7.74,0,0,1,.07,15.48Z"/></g></g></svg>