<svg xmlns="http://www.w3.org/2000/svg" viewBox="0 0 438.71 445.74"><g id="Camada_2" data-name="Camada 2"><g id="Camada_1-2" data-name="Camada 1"><path d="M5.26,445.74c-.47-.33-.93-.67-1.4-1-2.93-2-4.44-4.59-3.48-8.16s3.63-5.22,7.08-5.42c3.76-.23,7.55-.17,11.31-.08,2.07.05,3.15-.32,3.15-2.8q-.12-37,0-74a4.09,4.09,0,0,0-2.22-3.8C6.27,341.6,0,329,0,313c0-21-.06-42.07,0-63.1C.12,231.45,10.51,217.8,27.93,213a43.47,43.47,0,0,1,11.2-1.28c7.54,0,15.09-.17,22.63.07,3.26.1,4.18-.89,4.16-4.15-.14-21.47-.07-42.94-.07-64.41,0-1.45,0-2.91.08-4.35.4-4.7,2.82-7.33,7.47-7.38q21.54-.19,43.08,0c5.08,0,7.7,3,7.82,8.48.15,6.67,0,13.35,0,20,0,16,.08,31.92-.06,47.88,0,3,.79,3.93,3.87,3.91q28.93-.21,57.88,0c3.4,0,4-1.09,4-4.21-.12-26.55-.07-53.1-.06-79.65,0-9.1,2.14-11.2,11.35-11.21q18.51,0,37,0c7.74,0,10.13,2.37,10.14,10.14,0,26.7.09,53.39-.07,80.09,0,3.77.88,4.89,4.79,4.85,18.86-.22,37.72-.19,56.58,0,3.54,0,4.64-.76,4.61-4.48-.19-21.9-.1-43.81-.09-65.72,0-7.78,2.37-10.15,10.1-10.16q19.15,0,38.31,0c7.76,0,10,2.27,10,10.16q0,31.79,0,63.55c0,6.56,0,6.48,6.78,6.58,8.41.13,16.81-.23,25.22.33,18.2,1.23,33.89,16.13,33.93,37.81,0,21,.14,42.07,0,63.11-.14,15.66-6.38,28.36-19.48,37.34A5,5,0,0,0,416.7,355q.09,36.34,0,72.69c0,2.64.75,3.64,3.44,3.44s5.51,0,8.26-.05c4.1,0,8,.44,9.62,5s-1.15,7.3-4.48,9.68ZM219.4,431.06q89,0,178,.09c3.73,0,4.89-.78,4.85-4.73-.22-20.59-.11-41.19-.11-61.79,0-6.86,0-6.86-6.74-6.8a43.34,43.34,0,0,1-42.47-31,51.93,51.93,0,0,1-2-15c-.06-8.56.14-17.12-.09-25.67-.2-7.83-5.62-14.44-12.18-15.48a14.46,14.46,0,0,0-15.81,8.83,21.71,21.71,0,0,0-1.2,8.12c-.08,5.5.08,11-.31,16.52-1.81,25.92-30,45.19-54.81,37.63C246,335.54,234.19,319.59,234,298.14c0-5.21.48-10.46-.63-15.62a14.82,14.82,0,0,0-10.2-11.47c-5.16-1.71-10.07-.32-14,3.55-3.31,3.23-4.49,7.32-4.49,11.86,0,13.34-.06,26.69,0,40a52.61,52.61,0,0,1-2.58,16.65c-8.79,27.69-45.14,38.65-67.75,20.46-11.77-9.48-17.37-21.73-17.44-36.69-.06-14.22.12-28.44-.31-42.64A14.52,14.52,0,0,0,102,270.48c-8,.23-14,6.24-14.13,14.6-.15,9,0,18,0,27a51,51,0,0,1-1.3,12.51c-5.08,20.33-23,33.75-44.27,33.27-5.66-.12-5.66-.12-5.66,5.64,0,20.89.1,41.77-.09,62.66,0,3.9.89,5,4.93,5Q130.42,430.95,219.4,431.06Zm-.48-204.63H40.08a35.38,35.38,0,0,0-9.06.83c-8.8,2.3-16,10.07-16.07,18.93-.28,23.63-.47,47.28.09,70.91.33,14,12.91,25.45,26.81,26,17.69.74,30.87-11.58,31.23-29.42.2-9.57-.11-19.15.1-28.72.33-15.53,11.79-28,26.36-29,17.86-1.22,31.8,11.57,32,29.53.13,14.06-.12,28.14.08,42.2.18,12.9,5.88,22.77,17.91,27.86,11.28,4.77,21.95,2.77,31.12-5.45,6.76-6.08,9.35-14,9.42-23,.11-15.22-.9-30.47.5-45.65,1.38-15,14.17-25.85,29.49-25.64a29,29,0,0,1,28.21,26.71c.47,6.79.21,13.63.73,20.42,1.09,14.19,13.87,25.58,28.6,25.81,14.46.23,27.34-11.16,29-25.39.83-6.95.14-13.91.65-20.85A29.15,29.15,0,0,1,328.2,257c18.84-5.12,36.74,8.21,37.29,28,.27,9.71,0,19.43.09,29.15.06,8.73,3.21,16.23,9.85,21.89,9.21,7.84,19.87,9.61,30.9,4.9,11.26-4.81,17.32-14,17.52-26.29.33-20.73.1-41.48.11-62.22,0-17.51-8.37-25.94-25.77-25.94Zm-14.28-55c0,12.17.06,24.34,0,36.52,0,2.6.38,3.92,3.48,3.83,7.52-.21,15.07-.18,22.6,0,2.78.06,3.36-1,3.36-3.57q-.12-36.73,0-73.47c0-2.8-1-3.38-3.55-3.33-7.39.13-14.79.21-22.17,0-3.22-.11-3.79,1.09-3.75,4C204.73,147.41,204.64,159.44,204.64,171.47Zm-124.29,7c0,9.86.08,19.72-.06,29.58,0,2.8.75,3.8,3.68,3.72,7.39-.19,14.79-.13,22.18,0,2.44,0,3.62-.36,3.6-3.26q-.19-29.59,0-59.17c0-2.91-1.16-3.31-3.6-3.27-7.39.11-14.79.17-22.18,0-2.92-.08-3.72.92-3.68,3.72C80.43,159.36,80.35,168.93,80.35,178.51Zm277.78.32c0-9.7-.09-19.4.06-29.09.05-2.85-.87-3.73-3.69-3.67-7.52.17-15.06.13-22.58,0-2.28,0-3,.73-3,3q.1,29.74,0,59.5c0,2.44.7,3.26,3.18,3.22q11.3-.21,22.58,0c2.65.06,3.51-.77,3.47-3.43C358.05,198.52,358.13,188.68,358.13,178.83Z"/><path d="M131.5,80.62a36.6,36.6,0,0,1-33,35.91C80.45,118.39,63.28,105.79,59.31,88c-1.93-8.68.26-16.68,3.54-24.48C69.55,47.56,78.76,33,88.37,18.69c3.49-5.18,9.64-5.47,13-.36,11.21,16.87,22.42,33.78,28.65,53.34A25.45,25.45,0,0,1,131.5,80.62ZM95.05,35.14c-2.51,4-4.82,7.52-6.88,11.13C82.71,55.83,77.11,65.35,73.94,76c-2.36,7.94,1.28,17,8.44,22.12a22.24,22.24,0,0,0,24.94.27c7.17-4.84,11.35-14.24,9-22C111.68,61.66,103.5,48.69,95.05,35.14Z"/><path d="M219.29,102.06C192.59,102,177.05,75,185,54.42c7.09-18.29,17.22-34.75,28.06-50.86,3.2-4.76,9.29-4.74,12.48,0,10.81,16.13,21,32.57,28,50.88C261.68,75.4,245.5,102.08,219.29,102.06Zm0-81.44c-8.09,12.8-15.67,25.27-20.59,39.09-3.15,8.85.26,18.21,8,23.79a22.25,22.25,0,0,0,25.3,0,20.82,20.82,0,0,0,7.94-23.81A99.83,99.83,0,0,0,235,48.07,232.32,232.32,0,0,0,219.26,20.62Z"/><path d="M343.74,116.73a35.91,35.91,0,0,1-34.4-47.48c6.34-18.57,17.07-34.8,27.88-50.93,3.33-5,9.46-4.89,12.77.08,10.74,16.17,21.1,32.53,27.93,50.93C385.84,90.67,369.52,116.42,343.74,116.73Zm-.2-81.65c-8.14,13.27-16,25.76-20.75,39.84-2.87,8.57.63,17.89,8.24,23.26a22.16,22.16,0,0,0,25.24-.13c7.38-5.26,11-14.61,8.17-22.92C359.63,61,351.84,48.28,343.54,35.08Z"/></g></g></svg>