<svg xmlns="http://www.w3.org/2000/svg" xmlns:xlink="http://www.w3.org/1999/xlink" width="130" height="130" viewBox="0 0 130 130"><defs><clipPath id="a"><rect width="130" height="130" transform="translate(445 1437)" fill="#fff"/></clipPath></defs><g transform="translate(-445 -1437)" clip-path="url(#a)"><g transform="translate(442.928 1435.446)"><path d="M58.966,65.024,50.994,78.831l8.073,13.982H74.909l7.9-13.678L74.658,65.024Z" fill="#fff"/><path d="M66.989,37.6C46.7,37.6,30.2,56.126,30.2,78.9s16.5,41.29,36.79,41.29,36.779-18.519,36.779-41.29S87.267,37.6,66.989,37.6ZM100.742,80H84.8l-8,13.852,8.047,13.938h7.045c-.655.717-1.332,1.41-2.034,2.069H84.8l-3.414,5.914a33.13,33.13,0,0,1-3.311,1.427l4.836-8.38L74.86,94.882H59.117L51.071,108.82l4.836,8.38a33.141,33.141,0,0,1-3.311-1.427l-3.414-5.914H44.115c-.7-.659-1.378-1.352-2.034-2.069h7.045l8.047-13.938L49.178,80H33.235l-1.8,3.12c-.116-1.256-.175-2.53-.185-3.818l.094-.163-.1-.177v-.039c0-1.287.059-2.56.164-3.816l1.581,2.739H49.029l7.966-13.806-8.07-13.982H42.081c.655-.717,1.331-1.41,2.034-2.069h4.759l3.29-5.7a33.285,33.285,0,0,1,3.225-1.448l-4.647,8.049,8.07,13.982H74.659l8.07-13.982-4.788-8.293a33.062,33.062,0,0,1,3.158,1.33l3.5,6.058h5.262c.7.659,1.378,1.352,2.034,2.069H84.547L76.652,63.73,84.8,77.841h15.692l2.01-3.482q.186,1.862.216,3.763l-.335.58.345.6c-.01,1.287-.069,2.562-.185,3.818Z" fill="#fff"/><circle cx="1.494" cy="1.494" r="1.494" transform="translate(55.671 18.391)" fill="#fff"/><path d="M129.891,59.25,118.925,39.19A20.613,20.613,0,0,0,90.95,30.975l-9,4.925c-.859-.383-1.728-.724-2.6-1.024v-9.55A6,6,0,0,0,77.5,13.915c-.116-.187-.244-.381-.394-.59-.01-.01-.01-.01-.01-.021h-.01a11.9,11.9,0,0,0-1.345-1.624,12.345,12.345,0,0,0-18.819,1.6c-.01.01-.01.01-.01.021a.01.01,0,0,0-.01.01c-.151.2-.283.4-.406.6a6,6,0,0,0-1.862,11.412v9.54q-1.3.466-2.514.993l-8.928-4.883A20.613,20.613,0,0,0,15.217,39.19L4.252,59.25A17.905,17.905,0,0,0,11.36,83.5a3.774,3.774,0,0,0,1.811.466A3.828,3.828,0,0,0,16.491,82l19.14-35.041a5.714,5.714,0,0,1,4.387-2.9C31.006,52.846,25.885,65.4,25.885,78.9a50.77,50.77,0,0,0,3.476,18.571l-3.849,4.345a15.739,15.739,0,0,0,1.324,22.243,3.915,3.915,0,0,0,2.607.993,4,4,0,0,0,2.98-1.335l8.3-9.332a37.688,37.688,0,0,0,52.66-.114l8.4,9.446a3.942,3.942,0,0,0,2.721,1.324c.083,0,.166.01.248.01a3.921,3.921,0,0,0,2.607-.993,15.752,15.752,0,0,0,1.335-22.243l-4-4.5a50.716,50.716,0,0,0,3.4-18.415c0-13.5-5.132-26.071-14.153-34.855a5.711,5.711,0,0,1,4.573,2.918L117.652,82a3.766,3.766,0,0,0,5.121,1.5,17.9,17.9,0,0,0,7.118-24.25ZM76.817,15.943h0a3.942,3.942,0,0,1,0,7.883h0a3.942,3.942,0,0,1,0-7.883Zm-23.6,3.942a3.947,3.947,0,1,1,3.942,3.942,3.947,3.947,0,0,1-3.942-3.942Zm52.8,59.012a48.664,48.664,0,0,1-3.466,18.2.37.37,0,0,0-.041.114,46.094,46.094,0,0,1-5.018,9.146c-.155.217-.3.445-.455.662-.062.083-.134.166-.2.248-.383.517-.766,1.024-1.169,1.51-.01.01-.01.01-.01.021q-1.412,1.707-2.949,3.249a35.745,35.745,0,0,1-51.346.124,42.647,42.647,0,0,1-2.98-3.259,45.282,45.282,0,0,1-6.88-11.618A48.531,48.531,0,0,1,27.954,78.9c0-13.75,5.525-26.454,15.157-34.876a37.866,37.866,0,0,1,9.373-6.073,35.861,35.861,0,0,1,3.507-1.376c.062-.021.114-.031.176-.052a35.143,35.143,0,0,1,25.42,1.469,38.032,38.032,0,0,1,9.322,6.063c9.611,8.421,15.115,21.126,15.115,34.845Z" fill="#fff"/><circle cx="1.494" cy="1.494" r="1.494" transform="translate(75.331 18.391)" fill="#fff"/></g></g></svg>