<svg xmlns="http://www.w3.org/2000/svg" xmlns:xlink="http://www.w3.org/1999/xlink" width="130" height="130" viewBox="0 0 130 130"><defs><clipPath id="a"><rect width="130" height="130" transform="translate(1045 1437)" fill="#fff"/></clipPath></defs><g transform="translate(-1045 -1437)" clip-path="url(#a)"><path d="M132.726,68.067a64.969,64.969,0,0,0-4.792-18.949,65.8,65.8,0,0,0-16.17-22.86A65.128,65.128,0,0,0,68.109,9.207h-.315a64.831,64.831,0,0,0-23.28,4.278A65.869,65.869,0,0,0,8.536,47.126,64.884,64.884,0,0,0,2.863,68.067,13.715,13.715,0,0,0,6.827,79.162a.671.671,0,0,0,.157.136L46.161,105.65a10.091,10.091,0,0,0-1.416,1.185,9.84,9.84,0,0,0-2.915,7.026,9.951,9.951,0,0,0,9.942,9.952H82.591a9.941,9.941,0,0,0,6.187-17.722L128.594,79.3a1.037,1.037,0,0,0,.157-.126A13.777,13.777,0,0,0,132.726,68.067ZM51.158,106.175,9.357,49.161a1.049,1.049,0,1,1,1.693-1.238l42.709,58.252Zm6.508,0L23.9,28.6a1.049,1.049,0,1,1,1.923-.839l34.131,78.417Zm5,0L44.074,15.71a1.049,1.049,0,0,1,2.054-.419l18.677,90.884Zm6.5,0h-2.1V11.3a1.049,1.049,0,0,1,2.1,0Zm2.234,0,18.5-90.7a1.049,1.049,0,0,1,2.055.419L73.533,106.175Zm7.253,0H76.353l34.22-77.686a1.049,1.049,0,1,1,1.919.846Zm48.417-55.04-41.534,55.04H82.9l42.489-56.3a1.05,1.05,0,1,1,1.678,1.264Z" transform="translate(1042.207 1435.49)" fill="#fff"/></g></svg>