<svg xmlns="http://www.w3.org/2000/svg" xmlns:xlink="http://www.w3.org/1999/xlink" width="130" height="130" viewBox="0 0 130 130"><defs><clipPath id="a"><rect width="130" height="130" transform="translate(1345 1437)" fill="#fff"/></clipPath></defs><g transform="translate(-1345 -1437)" clip-path="url(#a)"><g transform="translate(1343.945 1429.561)"><path d="M131.038,97.154l-4.167-22.426,3.79-22.373a1.037,1.037,0,0,0-1.763-.9L109.2,71.481c-2.723-1.771-5.477-3.4-8.231-4.874a10.151,10.151,0,0,0,1.867-5.888,1.037,1.037,0,0,0-1.037-1.037,10.311,10.311,0,0,0-7.731,3.488c-.014.016-.024.033-.038.049A92.163,92.163,0,0,0,62.021,55.33l.471-.508a1.9,1.9,0,0,0-.813-3.111l-3.064-1A1.221,1.221,0,0,1,57.858,50l-1.211-2.95a1.914,1.914,0,0,0-3.175-.585l-8.749,9.461a99.822,99.822,0,0,0-20.713,5.05c-2.417.864-4.8,1.824-7.272,2.934a1.029,1.029,0,0,0-.474.445A5.607,5.607,0,0,0,8.4,68.311a1.024,1.024,0,0,0-.635.118c-1.854,1.049-3.617,2.124-5.23,3.2a3.378,3.378,0,0,0-.022,5.574,108,108,0,0,0,20.605,11.2,87.944,87.944,0,0,0,33.2,6.614,85.516,85.516,0,0,0,8.732-.453,9.862,9.862,0,0,0,1.184,1.462h0a10.149,10.149,0,0,0,7.224,2.993A1.037,1.037,0,0,0,74.5,97.986a10.126,10.126,0,0,0-1.122-4.649A94.989,94.989,0,0,0,89.82,88.5l3.489,3.771a1.888,1.888,0,0,0,1.4.622,1.943,1.943,0,0,0,.341-.03A1.89,1.89,0,0,0,96.478,91.7l1.207-2.963a1.266,1.266,0,0,1,.784-.719l3.021-.98a1.911,1.911,0,0,0,.843-3.117l-.86-.933c3.236-1.783,5.843-3.462,7.665-4.719l20.15,19.807a1.037,1.037,0,0,0,1.747-.933ZM13.917,73.057a3.585,3.585,0,0,1-3.578-3.578,3.546,3.546,0,0,1,.1-.791,3.733,3.733,0,0,1,.185-.6,2.29,2.29,0,0,1,.187-.353c.016-.031.037-.058.055-.088.047-.078.09-.156.142-.229a3.26,3.26,0,0,1,.311-.388c.011-.013.027-.024.039-.037.038-.039.079-.075.119-.112l.018-.017c.006-.006.015-.009.021-.016a3.584,3.584,0,0,1,.622-.453c.03-.018.052-.044.083-.06a2.184,2.184,0,0,1,.27-.135H12.5a3.574,3.574,0,0,1,.415-.134c.094-.028.183-.067.28-.087a3.568,3.568,0,0,1,.726-.075,2.562,2.562,0,0,1,.56.052.4.4,0,0,1,.051.009c.067.011.133.023.2.038h.02a2.852,2.852,0,0,1,.527.166c.043.018.082.038.123.058.077.035.156.066.231.1a2.282,2.282,0,0,1,.228.141c.03.02.062.036.091.057.01.007.023.012.033.021a3.811,3.811,0,0,1,.394.321c.021.017.037.038.057.057l.041.041c.016.017.034.03.048.048a1.875,1.875,0,0,1,.259.311,1.023,1.023,0,0,1,.064.089c.024.033.048.064.071.1l.022.03a3.555,3.555,0,0,1,.262.491c.024.054.041.111.063.166a3.509,3.509,0,0,1,.139.446c.015.061.03.122.041.186a3.533,3.533,0,0,1,.057.642,3.587,3.587,0,0,1-3.588,3.578ZM31.66,85.1a5.712,5.712,0,0,1-5.693-5.7A1.037,1.037,0,0,1,27,78.356h9.323a1.037,1.037,0,0,1,1.037,1.037,5.714,5.714,0,0,1-5.7,5.7Zm9.126-14.767a3.961,3.961,0,1,1,2.808-1.157A3.961,3.961,0,0,1,40.785,70.329Zm9.686-3.547a2.955,2.955,0,1,1,2.966-2.955,2.955,2.955,0,0,1-2.966,2.955Zm4.7,4.48a2.178,2.178,0,1,1,2.178-2.178,2.178,2.178,0,0,1-2.178,2.178Zm5.963-2.945a2.955,2.955,0,1,1,2.955-2.955,2.955,2.955,0,0,1-2.955,2.955ZM67.5,66.969A2.167,2.167,0,1,1,69.676,64.8,2.167,2.167,0,0,1,67.5,66.969Zm6.3,6.295a3.967,3.967,0,1,1,3.961-3.972A3.967,3.967,0,0,1,73.8,73.264ZM82.6,69.323a2.955,2.955,0,1,1,2.955-2.955A2.955,2.955,0,0,1,82.6,69.323Zm26.858,4.708c-32.6-18.345-63.371-15.4-83.686-9.551-2.468.695-4.781,1.452-6.927,2.219a5.514,5.514,0,0,0-1.68-1.846c2.219-1,4.615-1.981,7.2-2.9A98.691,98.691,0,0,1,45.234,56.9l14.539-.674a90.684,90.684,0,0,1,34.584,8.255l5.05,2.458a111,111,0,0,1,10.069,5.952c.01.01.021.01.031.021Z" fill="#fff"/><circle cx="1.385" cy="1.385" r="1.385" transform="translate(12.536 68.094)"/></g></g></svg>