<svg xmlns="http://www.w3.org/2000/svg" xmlns:xlink="http://www.w3.org/1999/xlink" width="130" height="130" viewBox="0 0 130 130"><defs><clipPath id="a"><rect width="130" height="130" transform="translate(745 1437)" fill="#faf2e7"/></clipPath></defs><g transform="translate(-745 -1437)" clip-path="url(#a)"><g transform="translate(741.537 1431.768)"><path d="M133.452,81.7v-.043A36.339,36.339,0,0,0,97.106,45.595H29a10.231,10.231,0,0,1,10.2-9.173h.033l34.674.13A12.919,12.919,0,0,0,86.858,23.644a1.086,1.086,0,1,0-2.171,0A10.747,10.747,0,0,1,73.95,34.381h-.033l-34.674-.13A12.444,12.444,0,0,0,26.8,45.595H16.175a10.541,10.541,0,1,1,0-21.082H68.349a6.969,6.969,0,0,0,0-13.939h-5.84a1.086,1.086,0,0,0,0,2.171h5.84a4.8,4.8,0,1,1,0,9.6H16.175a12.712,12.712,0,1,0,0,25.425H26.792A36.347,36.347,0,0,0,63.127,83.048H85.74c.163,0,.337,0,.51.011a10.2,10.2,0,0,1,3.9.966,10.61,10.61,0,0,1,2.844,2.008c.228.25.467.489.662.749a.459.459,0,0,0,.054.076,10.006,10.006,0,0,1,1.954,3.767c0,.011,0,.011.011.022a8.8,8.8,0,0,1,.217,1.064.543.543,0,0,1,.022.13c.033.174.043.337.065.51.033.326.043.651.043.977a9.8,9.8,0,0,1-.228,2.117,7.04,7.04,0,0,1-.206.825,10.007,10.007,0,0,1-.673,1.694q-.114.228-.228.423a9.652,9.652,0,0,1-1.227,1.715c-.152.185-.326.358-.5.532-.2.2-.391.369-.608.554-.011.011-.033.022-.043.033-.217.185-.456.358-.695.532H91.6a2.634,2.634,0,0,1-.3.217c-.011,0-.022.011-.033.022s-.011,0-.022.022a10.3,10.3,0,0,1-5.5,1.6H62.964l-15.98-15.98a1.086,1.086,0,0,0-1.531-.011,12.785,12.785,0,0,0-1.639,15.991H39.385a1.075,1.075,0,0,0-1.086,1.086,12.714,12.714,0,0,0,24.078,5.721A25.23,25.23,0,0,0,86.9,129.891h10.2a36.089,36.089,0,0,0,13.765-2.7l.065-.033a36.208,36.208,0,0,0,22.526-33.621V81.962A2,2,0,0,0,133.452,81.7ZM45.193,57.287a4.76,4.76,0,1,1,4.755-4.755,4.76,4.76,0,0,1-4.755,4.755Zm42.664,1.976a3.483,3.483,0,1,1-3.484,3.485,3.483,3.483,0,0,1,3.484-3.485ZM81.172,68.8a2.5,2.5,0,1,1,2.5-2.5,2.5,2.5,0,0,1-2.5,2.5Zm6.972,8.522a4.74,4.74,0,1,1,4.74-4.74,4.74,4.74,0,0,1-4.74,4.74Zm4.132,5.4a11.555,11.555,0,0,0-1.194-.662c-.261-.119-.521-.228-.782-.337a28,28,0,0,0,.923-33.957h2.616A30.135,30.135,0,0,1,92.275,82.722Zm17.771,42.447c-.836.347-1.672.651-2.529.923A30.059,30.059,0,0,1,91.07,104.575a12.708,12.708,0,0,0,1.4-.782c.206-.13.4-.261.586-.4a27.929,27.929,0,0,0,17.38,21.6c-.13.065-.261.119-.391.174Zm21.245-40.493a30.239,30.239,0,0,1-33.165,7.469c-.011-.217-.043-.445-.076-.662a6.23,6.23,0,0,0-.141-.76c-.043-.217-.1-.445-.152-.662-.043-.174-.1-.337-.152-.51a28,28,0,0,0,33.664-8.2c.011.119.011.25.011.369a1.757,1.757,0,0,0,.011.239Z" fill="#fff"/><path d="M45.193,50.773a1.753,1.753,0,1,0,1.748,1.759,1.753,1.753,0,0,0-1.748-1.759Z" fill="#fff"/></g></g></svg>