<svg xmlns="http://www.w3.org/2000/svg" xmlns:xlink="http://www.w3.org/1999/xlink" width="130" height="130" viewBox="0 0 130 130"><defs><clipPath id="a"><rect width="130" height="130" transform="translate(445 1507)" fill="#fff"/></clipPath></defs><g transform="translate(-445 -1507)" clip-path="url(#a)"><path d="M116.414,75.8a15.092,15.092,0,0,0-13.537,16.244,2.707,2.707,0,0,0,5.415,0c0-5.972,3.643-10.829,8.122-10.829s8.122,4.857,8.122,10.829-3.643,10.829-8.122,10.829H91.023l-9.09-18.426a28.371,28.371,0,0,0,19.374-13.284c3.479-7.395,1.258-16.225-6.6-26.267a30.363,30.363,0,0,0,2.676-6.343,2.707,2.707,0,1,0-5.251-1.319A25.117,25.117,0,0,1,89.41,43.4a2.652,2.652,0,0,0-.439.7A21.226,21.226,0,0,1,70.39,54.146c-8.17,0-17.323-6.723-27.015-13.843-11.9-8.741-25.381-18.644-40.668-18.644A2.708,2.708,0,0,0,1.28,26.666c.233.143,23.086,14.5,23.086,30.188a19.27,19.27,0,0,1-1.322,8.7,16.832,16.832,0,0,0-1.385,7.54c0,5.936,6.658,9.368,15.836,11.3l-9.378,18.483H8.122a2.707,2.707,0,1,0,0,5.415H116.414a15.092,15.092,0,0,0,13.537-16.244A15.092,15.092,0,0,0,116.414,75.8ZM27.073,73.1a11.857,11.857,0,0,1,.984-5.5A24.009,24.009,0,0,0,29.78,56.853c0-11.474-9.3-21.743-16.7-28.1A99.32,99.32,0,0,1,40.171,44.665c10.427,7.662,20.273,14.9,30.219,14.9a26.12,26.12,0,0,0,21.13-9.909c5.637,7.67,7.281,14.121,4.886,19.208-2.682,5.7-10.124,9.252-18.554,11.015-.041,0-.079.019-.12.023a63.827,63.827,0,0,1-12.757,1.322,152.324,152.324,0,0,1-23.211-1.506l-.056-.008C31.765,78.131,27.073,75.556,27.073,73.1Zm16,12.265a165.994,165.994,0,0,0,21.9,1.271,69.88,69.88,0,0,0,11.507-1l8.506,17.241h-50.8Z" transform="translate(444.999 1507.025)" fill="#faf2e7"/></g></svg>